<?xml version="1.0" encoding="UTF-8" standalone="no"?>
<!-- Created with Inkscape (http://www.inkscape.org/) -->

<svg
   version="1.1"
   id="svg1"
   width="517"
   height="482"
   viewBox="0 0 517 482"
   sodipodi:docname="me_path.svg"
   inkscape:version="1.4.4 (dcaf3e7d9e, 2026-05-05)"
   xmlns:inkscape="http://www.inkscape.org/namespaces/inkscape"
   xmlns:sodipodi="http://sodipodi.sourceforge.net/DTD/sodipodi-0.dtd"
   xmlns="http://www.w3.org/2000/svg"
   xmlns:svg="http://www.w3.org/2000/svg">
  <defs
     id="defs1">
    <clipPath
       clipPathUnits="userSpaceOnUse"
       id="clipPath35">
      <path
         id="path35"
         style="stroke-width:0.1;stroke-linecap:square;paint-order:markers fill stroke;stop-color:#000000"
         d="m -880.82767,-187.29769 h 1640.84 v 73.28155 h -1640.84 z" />
    </clipPath>
    <clipPath
       clipPathUnits="userSpaceOnUse"
       id="clipPath52">
      <path
         id="path52"
         style="stroke-width:0.1;stroke-linecap:square;paint-order:markers fill stroke;stop-color:#000000"
         d="m -880.82767,-187.29769 h 1640.84 v 73.28155 h -1640.84 z" />
    </clipPath>
    <clipPath
       clipPathUnits="userSpaceOnUse"
       id="clipPath24">
      <rect
         style="fill:none;stroke:#000000;stroke-width:0.999999;stroke-linecap:butt;stroke-linejoin:bevel;paint-order:stroke markers fill;stop-color:#000000"
         id="rect24"
         width="44.999748"
         height="77.937294"
         x="251.53429"
         y="222.73541" />
    </clipPath>
    <linearGradient
       id="swatch9"
       inkscape:swatch="solid">
      <stop
         style="stop-color:#000000;stop-opacity:1;"
         offset="0"
         id="stop9" />
    </linearGradient>
    <clipPath
       clipPathUnits="userSpaceOnUse"
       id="clipPath4">
      <ellipse
         style="fill:#000000"
         id="ellipse4"
         cx="271.17334"
         cy="209.2793"
         rx="151.25362"
         ry="202.31621" />
    </clipPath>
  </defs>
  <sodipodi:namedview
     id="namedview1"
     pagecolor="#ffffff"
     bordercolor="#000000"
     borderopacity="0.25"
     inkscape:showpageshadow="2"
     inkscape:pageopacity="0.0"
     inkscape:pagecheckerboard="0"
     inkscape:deskcolor="#d1d1d1"
     showgrid="false"
     inkscape:zoom="1.2622374"
     inkscape:cx="294.71477"
     inkscape:cy="256.29093"
     inkscape:window-width="1600"
     inkscape:window-height="831"
     inkscape:window-x="0"
     inkscape:window-y="0"
     inkscape:window-maximized="1"
     inkscape:current-layer="g1" />
  <g
     inkscape:groupmode="layer"
     inkscape:label="Image"
     id="g1">
    <path
       style="mix-blend-mode:multiply;fill:none;fill-opacity:1;stroke:#000000;stroke-width:0.877746;stroke-linecap:round;stroke-linejoin:round;stroke-dasharray:none;stroke-dashoffset:0;stroke-opacity:1;paint-order:stroke fill markers"
       d="m 162.06798,333.96335 c -3.37648,-12.98694 0.2142,1.53011 15.26679,-20.88286 1.19811,-1.78397 15.21145,-10.02052 17.33077,-16.00477 3.03995,-8.58384 4.57702,-11.48059 7.28204,-13.72372 l 3.42874,-2.84327 -0.90598,-8.99217 c -0.72971,-7.24251 -1.37177,-9.49096 -3.29981,-11.55561 -1.62285,-1.73785 -3.09211,-2.38713 -4.562,-2.01598 -2.79418,0.70551 -6.29349,-2.97172 -6.7489,-7.09206 -0.2366,-2.14059 -1.23111,-3.52341 -3.3283,-4.62783 -3.01543,-1.58798 -5.8569,-3.61988 -8.24627,-5.89681 -0.71369,-0.68009 -1.6067,-0.92559 -1.98447,-0.54554 -0.37776,0.38004 -0.3761,-0.1237 0.004,-1.11944 0.37981,-0.99573 0.28912,-1.6794 -0.20154,-1.51925 -0.49065,0.16014 -2.03526,-0.51917 -3.43245,-1.5096 -2.24077,-1.5884 -2.38454,-2.05176 -1.21913,-3.92913 0.93332,-1.50347 1.00647,-2.5099 0.24916,-3.4279 -0.58964,-0.71475 -0.84675,-1.52623 -0.57135,-1.80328 0.27539,-0.27704 -0.64863,-1.12254 -2.05338,-1.87887 -2.15988,-1.16289 -2.55058,-2.10228 -2.53135,-6.08629 l 0.0227,-4.71115 2.11048,2.57102 c 1.16077,1.41405 1.81342,1.99254 1.45032,1.2855 -0.48472,-0.94386 0.67111,-1.2855 4.34913,-1.2855 h 5.00929 l -0.1132,-4.88494 c -0.0623,-2.68671 -0.4436,-5.41003 -0.84742,-6.05182 -0.40381,-0.6418 -1.16084,-4.11267 -1.68229,-7.71306 -1.13387,-7.82908 -4.69804,-16.31602 -6.85205,-16.31602 -0.85023,0 -1.25693,-0.47034 -0.90378,-1.04518 0.35314,-0.57486 1.11454,-0.75144 1.69198,-0.39242 0.61834,0.38446 0.87949,-0.13703 0.63534,-1.26873 -0.22801,-1.05683 -1.01066,-1.78957 -1.73925,-1.62832 -2.78593,0.61658 -4.17626,-2.04879 -4.17626,-8.00624 0,-4.11713 -0.48724,-6.3254 -1.60078,-7.25512 -3.04003,-2.53819 -4.533,-7.05878 -4.63463,-14.03326 -0.056,-3.84605 -0.4702,-8.14978 -0.92035,-9.56383 -0.80702,-2.53508 -0.82079,-2.5279 -0.98516,0.5142 -0.15749,2.91495 -0.21805,2.95659 -1.09738,0.75448 -0.51189,-1.28189 -1.22976,-5.26728 -1.59528,-8.85639 -0.57027,-5.59975 -0.28597,-7.47769 2.00372,-13.23549 2.74879,-6.91227 9.63611,-19.731258 13.23549,-24.634478 1.72115,-2.344628 13.4815,-10.791878 20.6417,-14.826581 1.67065,-0.94139 2.04666,-2.237395 2.06604,-7.121089 0.015,-3.78339 0.48308,-6.124303 1.27782,-6.390812 0.68942,-0.231307 1.25378,-1.779538 1.25378,-3.440515 0,-1.660976 1.20319,-4.937403 2.67375,-7.280949 3.29595,-5.252551 12.0758,-14.209462 13.92858,-14.209462 1.46124,0 8.24004,-3.270966 10.27855,-4.959697 3.51415,-2.91116 13.79711,-7.302082 19.7443,-8.430991 3.86502,-0.73367 10.52347,-1.063346 15.59772,-0.772283 7.35659,0.421979 10.1931,1.130371 16.77354,4.189029 4.35585,2.024641 9.25256,4.635947 10.88159,5.802903 1.78794,1.280792 4.72049,2.170634 7.39895,2.245109 5.47831,0.152326 12.55647,3.09283 14.33281,5.954331 1.00681,1.621858 2.3795,2.14204 5.65254,2.14204 4.10871,0 4.49645,0.273064 7.82825,5.512858 3.63434,5.715585 11.82797,12.232775 14.75712,11.737765 2.18019,-0.368438 7.54896,9.168178 6.85962,12.184839 -1.03314,4.521227 5.54077,12.372447 9.23484,11.029177 2.26902,-0.82508 6.51965,5.24633 6.97935,9.968988 0.24774,2.54501 2.05059,9.014468 4.00633,14.376588 4.03738,11.06934 6.28685,20.00478 5.3997,21.44886 -0.33108,0.53893 -0.0495,1.16513 0.62581,1.39158 1.37318,0.46048 1.50897,4.77005 0.51103,16.21846 -0.96031,11.01663 -1.68732,14.04365 -3.84464,16.00777 -1.50355,1.36888 -1.67638,2.16309 -0.82077,3.77146 0.89779,1.68764 0.54096,2.60094 -2.07856,5.31986 -2.00846,2.08469 -3.62329,5.23428 -4.42543,8.63142 -0.69466,2.94193 -1.82973,5.34896 -2.52239,5.34896 -0.69266,0 -1.01737,0.63446 -0.72158,1.40991 0.29578,0.77545 -0.0637,1.64212 -0.79877,1.92595 -0.82741,0.31947 -1.45802,2.75302 -1.65539,6.3881 -0.29335,5.40294 -0.0695,6.11172 2.80188,8.87232 1.75101,1.68342 4.24649,3.00028 5.68565,3.00028 6.52432,0 0.30164,4.04692 -6.86395,4.46397 -5.92258,0.3447 -7.34855,1.46742 -2.98014,2.34636 1.78822,0.3598 3.49888,1.05719 3.80149,1.54975 0.3026,0.49257 1.78807,0.90587 3.30105,0.91845 l 2.75086,0.0229 -2.55563,2.03701 c -1.4056,1.12035 -3.70567,2.33082 -5.11126,2.68994 -5.22101,1.33394 -6.41377,4.44883 -1.72861,4.51424 2.18954,0.0306 2.19392,0.057 0.19523,1.18008 -1.12448,0.63185 -2.21461,1.29024 -2.4225,1.4631 -0.2079,0.17288 -0.54126,2.65847 -0.74082,5.52356 -0.42785,6.14299 -1.69589,8.90263 -4.50249,9.79877 -1.12507,0.35924 -2.04558,1.31614 -2.04558,2.12646 0,0.81033 -0.50923,1.47331 -1.13163,1.47331 -0.62238,0 -0.87582,-0.67061 -0.56319,-1.49023 0.6522,-1.70982 -1.89709,-1.10889 -4.4387,1.0463 -0.84335,0.71515 -2.91341,1.45468 -4.60013,1.6434 -2.88222,0.32249 -3.05387,0.59067 -2.85278,4.45677 0.11769,2.2625 -0.0357,3.53515 -0.34074,2.82813 -0.62133,-1.43984 -3.45112,-1.77379 -3.45112,-0.40728 0,0.48303 -1.12787,2.10256 -2.50638,3.59895 -1.37852,1.4964 -4.15022,5.54239 -6.15936,8.99109 -2.00912,3.4487 -4.34208,6.96363 -5.18433,7.81096 -0.84225,0.84732 -2.27235,2.98212 -3.17801,4.744 -0.90565,1.76188 -4.80504,6.37454 -8.66531,10.25036 -3.86027,3.87582 -7.01867,7.48105 -7.01867,8.01163 0,0.53057 -0.69002,0.96469 -1.53338,0.96469 -0.84335,0 -1.53337,0.67117 -1.53337,1.4915 0,0.82033 -0.80503,1.96322 -1.78895,2.53975 -0.98391,0.57653 -1.40854,1.06231 -0.94362,1.07951 1.37808,0.051 -5.16439,6.19795 -6.64463,6.24295 -1.4618,0.0445 -9.678,10.01259 -9.31521,11.3015 0.12058,0.42843 -2.50051,1.63815 -5.82466,2.68826 -5.82207,1.83924 -8.195,4.13709 -8.195,7.93574 0,2.03923 5.34942,6.61699 8.17802,6.99832 2.09029,0.28181 2.54677,0.90163 2.50697,3.404 -0.0509,3.19907 2.18853,6.71041 4.27967,6.71041 0.67155,0 1.38306,0.48914 1.58116,1.08697 0.24655,0.74413 1.73605,0.77597 4.72236,0.10098 4.03876,-0.91292 4.31645,-0.84101 3.74515,0.96984 -0.34336,1.08835 -0.13308,1.95587 0.47408,1.95587 0.60014,0 1.09114,0.44826 1.09114,0.99614 0,0.54786 -0.69002,0.72975 -1.53337,0.40417 -0.84336,-0.32558 -1.53338,-0.0524 -1.53338,0.60718 0,0.65951 0.46001,0.91311 1.02225,0.56353 0.56224,-0.34957 1.02225,-0.0633 1.02225,0.63629 0,0.69953 1.95959,-1.56089 4.35464,-5.02316 2.39506,-3.46227 7.80021,-9.90779 12.01146,-14.32337 14.4561,-15.15753 20.56891,-23.67125 23.06352,-32.12213 1.41421,-4.79083 1.46281,-6.91212 0.37073,-16.18244 -0.69125,-5.86787 -0.95704,-10.97045 -0.59065,-11.33905 0.80697,-0.81182 5.76555,3.70087 5.77877,5.25912 0.0206,2.43709 11.10958,23.87297 13.39227,25.88851 1.34379,1.18652 6.35337,4.24621 11.13239,6.79929 4.77903,2.55309 35.09704,14.65957 27.59524,24.01839 -81.83834,102.09702 -199.9012,52.64895 -216.05406,-9.47979 z m 110.87607,53.77844 c 0.0596,-2.34124 0.026,-5.51899 -0.0746,-7.06166 -0.10059,-1.54267 0.18861,-3.3938 0.64271,-4.11363 0.81171,-1.28665 0.98576,-1.83108 1.24031,-3.87978 0.0703,-0.56563 0.84127,-1.0284 1.71332,-1.0284 1.60173,0 5.15366,-6.93232 4.09673,-7.99562 -0.31406,-0.31594 -0.57101,-0.12626 -0.57101,0.42154 0,1.48024 -7.2333,1.41149 -10.20057,-0.097 -3.51285,-1.78579 -16.33076,-2.75613 -15.88703,-1.20266 0.18234,0.63835 0.90063,3.47456 1.59621,6.30268 1.12021,4.55459 9.73161,22.3851 12.59212,26.07287 1.72581,2.2249 4.72305,-2.35785 4.85182,-7.41837 z M 260.63592,284.20752 c 1.363,-0.73385 1.9773,-0.73385 1.9773,0 0,0.58553 0.53668,1.06459 1.19263,1.06459 0.65594,0 0.91359,-0.2807 0.57257,-0.62378 -0.34103,-0.34309 -0.0727,-1.22224 0.59631,-1.95368 0.89683,-0.98054 1.57767,-1.03236 2.59173,-0.19726 1.55699,1.28222 15.56915,1.67597 14.79501,0.41576 -0.27582,-0.44899 0.0726,-1.51216 0.77411,-2.3626 1.02484,-1.24229 1.44786,-1.28397 2.15193,-0.21204 0.69045,1.05115 1.16721,0.9524 2.24744,-0.46553 0.7541,-0.98984 1.89539,-1.79971 2.5362,-1.79971 0.64082,0 1.16512,-0.44827 1.16512,-0.99614 0,-0.54786 0.62198,-0.75601 1.38217,-0.46254 1.5738,0.60755 4.74816,-3.71286 4.75764,-6.47529 0.003,-1.00975 0.67358,-3.12288 1.48917,-4.69583 0.81557,-1.57296 1.2453,-3.48269 0.95497,-4.24385 -0.57045,-1.49553 3.55087,-3.01778 5.90191,-2.17992 2.93626,1.0464 4.59779,-1.95698 5.29729,-9.57542 0.38111,-4.15065 1.60597,-9.56296 2.72191,-12.02736 1.11594,-2.4644 2.04362,-5.54737 2.0615,-6.85106 0.0411,-2.99914 2.24295,-5.96977 4.42475,-5.96977 0.92194,0 1.67625,-0.51647 1.67625,-1.14772 0,-0.63126 1.57951,-3.31241 3.51002,-5.95812 1.93051,-2.64572 4.06696,-7.10417 4.74768,-9.90765 0.68071,-2.80349 1.6609,-5.64338 2.17822,-6.31087 1.49516,-1.9292 1.13325,-19.35227 -0.65837,-31.69542 -1.55136,-10.68798 -4.81652,-22.47346 -6.82383,-24.63034 -0.50006,-0.53735 -0.90922,-1.75306 -0.90922,-2.70159 0,-0.94853 -1.44361,-5.36811 -3.20802,-9.82129 -5.9098,-14.91568 -24.35552,-37.596398 -31.83534,-39.144478 -1.56333,-0.32356 -3.70218,-1.687888 -4.75301,-3.031848 -1.20149,-1.53664 -2.5178,-2.20913 -3.54665,-1.81194 -0.89984,0.34737 -1.63697,0.235 -1.6381,-0.24974 -0.001,-0.48474 -1.26615,-0.98839 -2.81119,-1.11923 -1.54503,-0.13084 -4.50831,-0.39158 -6.58505,-0.57942 -2.24628,-0.20317 -3.5288,0.0607 -3.16595,0.65132 0.38798,0.63155 -3.48923,0.7319 -10.65483,0.27576 -8.77931,-0.55888 -12.14068,-0.38452 -15.23458,0.79025 -2.1834,0.82905 -5.80987,1.8157 -8.05882,2.19257 -4.75135,0.7962 -15.27924,6.902718 -16.40486,9.515338 -1.0748,2.494678 -1.63079,4.570248 -1.78811,6.675348 -0.074,0.99019 -0.92404,2.05244 -1.88896,2.36054 -0.96491,0.3081 -2.04735,1.90197 -2.40539,3.54195 -0.8867,4.06143 -0.34311,16.46068 0.84334,19.23649 0.62377,1.45936 0.57297,3.81108 -0.14368,6.65145 -0.60973,2.41665 -0.92558,4.57804 -0.70187,4.8031 0.22371,0.22506 1.86556,-0.10241 3.64855,-0.72772 2.52646,-0.88602 3.94782,-0.8149 6.44126,0.32229 1.7597,0.80255 7.4077,1.71987 12.55111,2.03847 5.14342,0.31861 9.97356,0.7756 10.73365,1.01553 0.76009,0.23993 2.63737,0.71267 4.17171,1.05051 2.15354,0.47419 3.48632,2.0267 5.84423,6.80772 3.53757,7.17294 4.29289,15.64445 2.17507,24.39515 -1.05691,4.36709 -1.06107,5.72509 -0.0215,6.98533 0.9775,1.18492 1.00349,1.85314 0.10716,2.75487 -0.8963,0.90174 -1.18334,0.76644 -1.18334,-0.55778 0,-0.96156 -0.46001,-1.7483 -1.02225,-1.7483 -0.56224,0 -1.02225,-1.67372 -1.02225,-3.71937 0,-3.21305 -0.27832,-3.64615 -2.04451,-3.18149 -1.12447,0.29582 -2.0445,0.12109 -2.0445,-0.3883 0,-1.3102 -8.85696,-10.19375 -10.16325,-10.19375 -0.59484,0 -1.08152,0.63751 -1.08152,1.41668 0,2.58 -3.17043,4.12089 -8.47887,4.12089 -4.94975,0 -5.0799,0.0658 -2.34968,1.18853 2.26578,0.93171 2.53308,1.32644 1.23705,1.82677 -0.9093,0.35103 -2.34329,0.37186 -3.18665,0.0463 -0.84336,-0.32557 -1.53338,-0.11084 -1.53338,0.47718 0,1.06297 0.77984,1.38754 6.64464,2.76554 l 3.06676,0.72058 -2.55563,0.98814 c -4.61601,1.78481 -19.42279,-2.20207 -19.42279,-5.22979 0,-0.72364 -6.20413,-2.46557 -8.17802,-2.29616 -0.60248,0.0518 -1.76759,4.6231 -3.18248,12.48668 -1.20973,6.72333 -0.16819,11.80273 4.35472,21.23717 2.71266,5.65837 3.69714,6.71708 8.11328,8.72495 4.17047,1.89616 5.02601,2.74566 5.02601,4.99049 0,1.48793 0.67539,3.60366 1.50087,4.70161 1.46331,1.94633 1.50168,1.93838 1.53338,-0.31764 0.0179,-1.27266 0.58563,-2.31392 1.26165,-2.31392 0.67604,0 2.63109,-1.35634 4.34457,-3.01408 1.71349,-1.65775 4.40318,-3.33339 5.97709,-3.72365 2.66135,-0.65991 2.81655,-0.52877 2.21723,1.87347 -0.7927,3.17742 0.40177,4.01863 4.52751,3.18851 3.04975,-0.61363 3.17233,-0.84088 3.18681,-5.90875 0.008,-2.89882 0.58331,-6.27494 1.27782,-7.50249 0.69451,-1.22754 2.64279,-4.92981 4.3295,-8.22726 3.33234,-6.51454 5.15995,-8.48316 7.92245,-8.53366 1.41102,-0.0258 1.78895,0.83632 1.78895,4.08091 0,4.08366 -0.70155,4.70649 -4.74795,4.2153 -1.55015,-0.18818 -6.68609,6.00647 -6.20472,7.48376 0.62231,1.90982 5.86097,1.9712 7.92412,0.0929 1.8002,-1.63896 2.13706,-1.54069 6.29868,1.83749 5.48128,4.44943 11.1172,5.5818 13.66803,2.7462 1.95466,-2.17288 7.05249,-2.66599 8.20285,-0.79346 0.9245,1.50488 -2.34611,3.95761 -5.27731,3.95761 -1.2293,0 -2.78113,0.6619 -3.44851,1.47089 -0.97219,1.17848 -0.77797,1.70534 0.97696,2.65021 1.20471,0.64862 2.88487,0.91122 3.73367,0.58354 0.89757,-0.3465 2.34692,0.37337 3.464,1.72052 1.05639,1.27397 1.93601,1.96301 1.95472,1.5312 0.0187,-0.43181 1.70024,-0.0848 3.73673,0.7713 4.75257,1.9977 5.08409,1.97235 7.62417,-0.58302 4.31105,-4.33701 12.14048,0.15224 13.67466,7.84077 0.51747,2.59334 0.0122,3.82824 -2.94565,7.19886 -2.40262,2.73793 -3.58418,3.51592 -3.61281,2.37884 -0.0911,-3.61568 -4.76331,-3.95037 -11.59419,-0.83054 -5.38704,2.46039 -7.57544,2.50664 -8.31084,0.17564 -0.48954,-1.55169 -1.74591,-1.81709 -8.25201,-1.74315 -4.29635,0.0488 -8.19122,0.60699 -8.8483,1.26803 -0.70054,0.70476 -1.83184,0.83946 -2.80609,0.3341 -0.89778,-0.4657 -2.55236,-0.62764 -3.67684,-0.35986 -1.12447,0.26778 -3.36038,0.4537 -4.96869,0.41314 -2.57138,-0.0648 -2.866,0.23255 -2.44183,2.4648 0.4355,2.29188 0.1485,2.53854 -2.95375,2.53854 -4.01794,0 -4.3177,1.11486 -1.13606,4.22525 1.88905,1.84675 1.96545,2.12957 0.42752,1.58267 -1.0299,-0.36623 -2.50961,-0.66589 -3.28824,-0.66589 -0.77864,0 -3.06591,-1.66014 -5.08283,-3.68921 -3.98557,-4.00956 -8.55457,-6.7868 -9.84521,-5.98434 -0.44695,0.27789 -1.56738,2.10535 -2.48984,4.061 -2.49374,5.28681 -4.99922,4.59699 -4.78747,-1.31812 0.0251,-0.70095 -0.27434,-1.0755 -0.66541,-0.83236 -0.39109,0.24316 -1.2574,-1.61296 -1.92517,-4.12469 -0.66776,-2.51173 -1.6759,-4.56679 -2.24029,-4.56679 -1.61385,0 -1.19819,6.49416 0.57905,9.04678 0.88288,1.26808 1.77121,3.56927 1.97407,5.11376 0.20286,1.5445 0.40054,2.98053 0.43927,3.19121 0.0387,0.21066 0.76908,-0.2003 1.62299,-0.91325 2.26486,-1.89099 5.94481,1.59202 5.13051,4.85596 -0.35266,1.41354 -0.12719,2.3589 0.5626,2.3589 0.6331,0 0.88826,0.68904 0.56703,1.53121 -0.34227,0.89731 1.72842,4.77375 5.00189,9.36375 3.07227,4.30788 5.58595,8.36813 5.58595,9.02277 0,0.75899 1.88646,1.15314 5.2066,1.08786 3.9131,-0.077 5.48213,0.34147 6.3157,1.68428 0.61002,0.98267 1.63118,1.58514 2.26924,1.33881 0.63806,-0.24631 2.00741,0.49404 3.04299,1.64523 2.14117,2.38021 2.94371,2.52445 5.72222,1.02849 z m -5.14715,-1.50643 c 0,-0.56562 0.44591,-1.72257 0.99094,-2.57101 0.54502,-0.84844 0.99094,-1.07983 0.99094,-0.51421 0,0.56563 -0.44592,1.72259 -0.99094,2.57102 -0.54503,0.84844 -0.99094,1.07983 -0.99094,0.5142 z m 7.8745,-12.08532 c -0.27888,-0.73113 -1.75285,-1.43306 -3.2755,-1.55984 -1.52265,-0.12677 -3.30237,-0.5678 -3.95495,-0.98005 -0.65257,-0.41226 -1.93131,-0.62658 -2.84163,-0.47628 -1.26298,0.20852 -1.5375,-0.34579 -1.15864,-2.33959 0.30059,-1.58193 0.0292,-2.61286 -0.68768,-2.61286 -1.90663,0 -5.87119,-4.08963 -4.10262,-4.23205 2.72675,-0.21959 5.55248,0.31327 6.70782,1.26493 1.28556,1.0589 4.47414,0.16342 4.47414,-1.25653 0,-1.07134 7.52494,-1.05169 11.24477,0.0293 1.94858,0.56628 2.48777,1.33586 2.26994,3.23981 -0.15712,1.37341 -0.7578,2.65997 -1.33484,2.85903 -0.57705,0.19905 -1.49204,0.89323 -2.03334,1.5426 -0.54129,0.64938 -1.84282,2.23146 -2.89228,3.51575 -1.34342,1.644 -2.05818,1.94164 -2.41519,1.00572 z m -46.75139,-54.67543 c 0,-0.89557 0.72835,-1.62832 1.61856,-1.62832 1.80523,0 1.49084,2.21392 -0.40464,2.84955 -0.66766,0.22389 -1.21392,-0.32566 -1.21392,-1.22123 z m 34.77222,-27.08139 c -0.008,-1.27266 0.44436,-2.31392 1.0066,-2.31392 1.2808,0 1.2808,1.09139 0,3.08522 -0.80131,1.24742 -0.99394,1.09982 -1.0066,-0.7713 z m 38.63825,-8.15848 c 0.73793,-0.29707 1.61963,-0.26053 1.95932,0.0812 0.33968,0.34173 -0.26409,0.5848 -1.34171,0.54015 -1.19087,-0.0493 -1.43309,-0.29304 -0.61761,-0.62134 z m 0.19167,-7.25424 c -0.84336,-0.32754 -2.15728,-1.48072 -2.91984,-2.56261 -1.35775,-1.92637 -1.41714,-1.923 -2.86915,0.16252 -1.94322,2.79104 -2.50993,2.70464 -6.32642,-0.96457 -3.62165,-3.48189 -3.82211,-4.45867 -1.73931,-8.47541 1.2976,-2.50249 1.28428,-2.82813 -0.11567,-2.82813 -0.98635,0 -1.36055,-0.58089 -0.99371,-1.5426 0.41244,-1.08128 -0.0899,-1.55196 -1.67957,-1.57388 -2.06781,-0.0285 -2.10614,-0.12602 -0.43425,-1.10474 1.22153,-0.71508 1.62092,-1.74809 1.19625,-3.09414 -0.55365,-1.75491 -0.28523,-1.93173 2.04089,-1.3444 1.79189,0.45245 3.27494,0.13317 4.48075,-0.96465 1.46013,-1.32935 4.70957,-1.67532 17.1126,-1.822 14.59151,-0.17256 15.48768,-0.065 19.09017,2.29035 3.64862,2.38556 5.44555,4.78316 4.3847,5.85038 -0.28076,0.28246 -1.09661,0.0486 -1.81299,-0.51959 -0.71639,-0.56823 -2.67795,-1.36504 -4.35904,-1.77069 -1.68108,-0.40565 -3.36439,-1.23869 -3.74067,-1.85121 -0.45794,-0.74541 -1.23272,-0.56178 -2.34318,0.55535 -0.91245,0.91795 -3.36927,1.95463 -5.45959,2.30372 -7.66297,1.27979 -8.23619,2.9211 -1.46465,4.19377 3.15632,0.59322 5.45277,1.74698 12.33353,6.19648 0.19686,0.1273 0.0405,0.7482 -0.34753,1.37978 -0.47181,0.76802 -1.86008,0.26235 -4.19178,-1.52683 -6.75176,-5.18084 -14.35683,-7.02929 -18.88649,-4.5905 -3.76485,2.02702 -2.37017,4.07745 2.77344,4.07745 7.64422,0 21.63364,5.68018 19.43555,7.89149 -1.39245,1.40084 -8.1262,0.57649 -9.06416,-1.10965 -1.2422,-2.23304 -3.60482,-2.06699 -4.35345,0.30597 -0.84866,2.68996 -5.86637,3.94528 -9.74643,2.43834 z m 6.13351,-5.86603 c 0,-0.24944 -0.46001,-0.73953 -1.02225,-1.08911 -0.56224,-0.34957 -1.02225,-0.14549 -1.02225,0.45351 0,0.59901 0.46001,1.08911 1.02225,1.08911 0.56224,0 1.02225,-0.20408 1.02225,-0.45351 z m -48.36978,112.35705 c -0.32632,-0.8204 -0.56856,-0.5767 -0.61761,0.62133 -0.0444,1.08411 0.19722,1.69152 0.53691,1.34979 0.33969,-0.34173 0.376,-1.22874 0.0807,-1.97112 z m 84.1486,-32.63209 c 0,-2.10976 -1.32559,-4.19774 -2.665,-4.19774 -1.76946,0 -1.89243,3.75208 -0.14619,4.46094 2.03052,0.82428 2.81119,0.75117 2.81119,-0.2632 z m -138.51514,-3.16933 c 0.34749,-0.56563 -0.11253,-1.02841 -1.02225,-1.02841 -0.90972,0 -1.36974,0.46278 -1.02225,1.02841 0.34748,0.56562 0.80749,1.02841 1.02225,1.02841 0.21475,0 0.67477,-0.46279 1.02225,-1.02841 z m -4.11335,-1.66504 c 0.9103,-0.91577 1.48784,-1.83329 1.28343,-2.03893 -0.60986,-0.61354 -6.88147,2.03039 -6.88147,2.90103 0,1.44367 3.90363,0.84251 5.59804,-0.8621 z m 148.762,-2.96279 c 0,-0.84844 -0.46001,-1.54261 -1.02225,-1.54261 -0.56224,0 -1.02225,0.69417 -1.02225,1.54261 0,0.84843 0.46001,1.54261 1.02225,1.54261 0.56224,0 1.02225,-0.69418 1.02225,-1.54261 z m 7.56393,-0.34661 c 0.88391,-1.43881 -2.43687,-5.30963 -4.55514,-5.30963 -2.41258,0 -2.44869,0.39119 -0.33559,3.63561 1.64913,2.53203 3.892,3.29973 4.89073,1.67402 z m -72.98805,-5.63336 c 0,-1.38773 -6.13063,-4.81831 -8.61057,-4.81831 -2.21613,0 -6.10351,3.65477 -5.29215,4.97548 1.07595,1.75141 13.90272,1.6064 13.90272,-0.15717 z m 10.22252,-0.70467 c 0,-0.56563 -0.20286,-1.02841 -0.4508,-1.02841 -0.24793,0 -0.7351,0.46278 -1.08258,1.02841 -0.34749,0.56561 -0.14463,1.0284 0.45079,1.0284 0.59542,0 1.08259,-0.46279 1.08259,-1.0284 z m -65.42413,-5.14205 c 0,-0.56562 -0.46001,-1.02841 -1.02225,-1.02841 -0.56224,0 -1.02225,0.46279 -1.02225,1.02841 0,0.56563 0.46001,1.02841 1.02225,1.02841 0.56224,0 1.02225,-0.46278 1.02225,-1.02841 z m 122.61631,-8.173 c 1.09482,-1.10142 2.51231,-3.99382 3.14997,-6.42755 0.63766,-2.43373 1.84054,-5.49384 2.67306,-6.80024 1.42973,-2.24349 2.8554,-8.58633 4.14698,-18.44999 0.50892,-3.88648 0.34411,-4.37072 -1.48756,-4.37072 -1.13293,0 -2.77638,-1.10012 -3.65213,-2.44471 -1.89127,-2.90384 -6.75615,-4.46672 -7.9343,-2.54896 -1.11813,1.82007 0.12934,3.46253 1.33761,1.76114 0.68925,-0.97054 0.7381,-0.76916 0.16046,0.66152 -0.45674,1.13124 -0.84514,4.41281 -0.86311,7.29239 -0.018,2.87956 -0.56773,5.88765 -1.22168,6.68464 -1.50567,1.83503 -4.94626,22.78873 -4.10432,24.99599 0.86823,2.27619 5.38465,2.07137 7.79502,-0.35351 z m -152.34553,-5.49066 c -0.82358,-2.88893 -4.4329,-6.90447 -6.20601,-6.90447 -1.09607,0 -1.09152,0.0702 0.25642,3.96016 0.61724,1.78128 1.50071,3.23868 1.96328,3.23868 0.46257,0 1.15054,1.4177 1.52884,3.15044 0.62399,2.85814 0.80943,2.98312 1.9986,1.34702 0.88721,-1.22062 1.03549,-2.76913 0.45887,-4.79183 z m 164.66648,-6.32958 c 0,-0.24943 -0.46002,-0.73953 -1.02225,-1.0891 -0.56224,-0.34958 -1.02226,-0.1455 -1.02226,0.45351 0,0.599 0.46002,1.0891 1.02226,1.0891 0.56223,0 1.02225,-0.20408 1.02225,-0.45351 z m -128.29262,-44.7964 c 0.79958,-1.30156 -0.55368,-1.30156 -2.55563,0 -1.32146,0.85913 -1.29447,0.99908 0.19523,1.01265 0.95073,0.008 2.01292,-0.44703 2.3604,-1.01265 z m 13.8004,0.59156 c 0,-0.76889 -10.56805,-3.58334 -11.43385,-3.04502 -1.97929,1.23063 -0.52167,2.36342 3.5114,2.72886 2.38951,0.21651 5.14959,0.47452 6.13351,0.57334 0.98392,0.0988 1.78894,-0.0169 1.78894,-0.25718 z m 87.46874,100.3001 c -0.31107,-0.50636 0.12179,-1.18601 0.96192,-1.51033 0.92786,-0.3582 1.52751,0.003 1.52751,0.92063 0,1.66335 -1.59739,2.04173 -2.48943,0.5897 z"
       id="path1"
       clip-path="url(#clipPath4)"
       transform="matrix(1.1518705,0,0,0.97602728,-51.547497,13.764722)"
       sodipodi:nodetypes="sssscssssssscssssssccsssccssssssssscsssssssscsssssssssssssssssssssssssssssssssscssssssssssssscsssssssssssssssssssssssssssssssscsssssssssssssssssssssssscssssscsssssssssssssssssscsssssssssssssssssssscsssssssssssssscsscssssssssssscsssssssssssssssscssscsssssssssssssssssssssssssssscsssssssssscsssssssssssssccsssscsscssssssssssssssssssssssssssssssssssssssssssssssssssssssssssssssssssssssssssssssssssssssssssssssssssssssssssscssssssssss" />
  </g>
</svg>
