<svg width="554" height="554" viewBox="0 0 554 554" xmlns="http://www.w3.org/2000/svg">
  <path style="fill:none;fill-opacity:1;stroke:#000;stroke-width:1.31549;stroke-opacity:1" d="M362.707 449.18c-.203-2.857-73.289-80.984-76.257-81.516-2.726-.489-4.888-3.104-4.437-5.367.524-2.633-25.838-45.345-29.597-47.955-4.498-3.122-28.996-9.45-29.367-7.587-.159.798-1.793 1.15-3.633.784-4.198-.836-26.722 8.347-29.462 12.011-1.952 2.612-9.814 2.726-9.298.135.116-.582-3.673-2.496-8.42-4.253-32.655-12.084-33.975-12.49-37.406-11.52-2.817.797-3.701.53-5.381-1.627-3.567-4.578-61.075-15.39-65.057-12.23-3.247 2.575-6.928.196-6.122-3.958.491-2.537-26.073-21.45-29.4-20.932-3.245.505-5.735-3.063-4.254-6.099C26.385 255.438 8.483 167.618 5 162.841c-2.936-4.026-2.416-6.025 1.802-6.933 2.223-.479 39.516-37.499 55.448-55.043 1.474-1.624 3.9-4.184 5.39-5.69 1.49-1.504 6.992-7.19 12.227-12.633a7486 7486 0 0 1 20.711-21.427c7.594-7.821 11.404-12.752 11.845-15.33.582-3.4 1.07-3.72 4.614-3.02 2.366.467 12.162-1.485 24.306-4.844 11.188-3.094 28.291-7.815 38.006-10.49 9.715-2.676 18.55-5.551 19.633-6.39 2.585-1.999 6.907-1.076 7.406 1.581.521 2.772 8.362 8.418 11.823 8.513 3.695.102 14.646-11.426 15.03-15.82.364-4.174 4.317-5.176 6.972-1.768 2.563 3.29 25.63 7.997 27.227 5.555 1.563-2.392 4.904-2.58 7.308-.412 2.14 1.93 28.587-2.597 34.41-5.892 3.18-1.799 6.535-1.08 7.464 1.6.89 2.567 128.954 67.436 132.771 67.252 2.657-.127 5.866 3.31 5.505 5.897-.24 1.72 53.237 68.371 55.382 69.025.774.236 2.152.668 3.062.959 1.02.326 1.251 2.081.604 4.578-1.142 4.403 20.426 81.629 23.796 85.202 1.255 1.331 1.294 3.028.137 5.924-2.293 5.74-6.18 57.562-4.618 61.558 1.145 2.927.95 3.423-1.912 4.87-2.82 1.425-15.442 12.804-41.273 37.21-4.418 4.174-8.215 8.505-8.438 9.624-.617 3.097-4.824 4.874-6.36 2.686-1.976-2.814-14.704-4.878-16.178-2.623q-1.224 1.87-4.296.655c-4.331-1.716-25.614 11.744-26.731 16.905-.868 4.01-6.556 4.762-7.27.962-.59-3.134-40.859-11.243-41.436-8.344-.23 1.158-1.611 1.645-3.565 1.256-10.476-2.087-18.21 15.75-15.044 34.695 1.213 7.258 2.68 16.894 3.259 21.415.777 6.066 1.848 8.77 4.09 10.327 2.167 1.504 2.757 2.894 2.056 4.848-1.278 3.562-7.203 3.484-7.457-.098zm-6.341-60.07c2.445-.34 14.77-12.403 15.278-14.952.18-.904 1.113-2.143 2.073-2.753 1.87-1.187 1.24-4.593-10.005-54.13-3.256-14.341-6.727-29.92-7.713-34.622-2.874-13.694.414-16.908-39.81 38.917-11.581 16.071-22.336 30.923-23.901 33.004-4.45 5.918-3.84 6.39 25.322 19.538 15.148 6.83 28.934 13.185 30.635 14.122s3.735 1.586 4.518 1.442a107 107 0 0 1 3.603-.565zm-64.797-37.392a1548 1548 0 0 0 13.31-17.987 3250 3250 0 0 1 11.536-15.758c2.453-3.317 4.51-6.282 4.57-6.589.062-.307 2.163-3.262 4.67-6.566 21.437-28.258 23.022-31.01 21.214-36.827-3.63-11.679-26.61-7.662-34.764 6.077-.433.729-1.722 2.023-2.866 2.877-2.115 1.577-11.742 20.068-11.928 22.91-.214 3.278-1.107 4.632-2.828 4.289-5.335-1.063-37.517 8.598-37.065 11.127.204 1.147 26.895 44.502 27.466 44.616.248.05 3.256-3.626 6.685-8.169zm131.781 27.966c.55-.565-1.109-16.668-3.686-35.785s-5.586-41.719-6.688-50.226c-1.868-14.43-5.088-23.222-8.122-22.175-.647.223-11.033-.514-23.08-1.64-19.174-1.79-21.96-1.766-22.35.19-.244 1.229-1.088 2.459-1.875 2.734-.867.303-.926 3.035-.151 6.927 1.13 5.675 8.72 39.246 11.386 50.37.544 2.27 2.654 11.83 4.69 21.244 2.034 9.414 4.166 17.946 4.737 18.96 1.255 2.23 43.548 11.039 45.14 9.401zm16.427-8.247c6.712-4.232 12.35-8.43 12.53-9.33s2.04-1.623 4.136-1.607c4.158.034 17.133-27.393 14.64-30.944-.562-.799-.814-2.62-.56-4.047.343-1.935-2.983-5.61-13.09-14.466-7.453-6.529-19.065-16.89-25.806-23.024-19.406-17.66-19.736-17.145-14.39 22.495 2.128 15.77 5.041 37.596 6.475 48.502 1.433 10.905 2.889 19.892 3.234 19.971s6.119-3.318 12.83-7.55zm-257.233-56.87c2.393-1.519 2.417-40.24.025-42.202-.993-.815-1.634-2.34-1.425-3.388.668-3.354-20.198-16.625-22.468-14.29-2.975 3.06-21.824 43.447-20.894 44.77 2.6 3.703 41.856 16.954 44.762 15.11zm32.92-11.095c.178-.89 4.408-4.292 9.401-7.56 19.508-12.77 39.123-27.98 36.654-28.425-1.328-.24-18.278.099-37.664.752l-35.25 1.187-1.188 6.252c-1.621 8.524-1.552 37.331.093 38.802 1.626 1.454 27.502-8.735 27.955-11.008zm-84.375-6.287c4.77-1.273 26.458-41.502 24.375-45.212-.641-1.141-.287-2.563 1.017-4.087 1.937-2.265 7.057-26.384 6.692-31.526-.284-4.004-2.23-4.31-28.863-4.52-26.903-.213-28.61.15-32.158 6.829-2.144 4.036-14.833 27.23-28.262 51.657-3.649 6.638-6.807 12.937-7.019 14-.561 2.82 57.938 14.535 64.218 12.86zm343.82 65.877c1.26-.8 2.965-1.053 3.79-.563.824.49 3.153-.693 5.176-2.628 2.022-1.936 12.44-11.717 23.152-21.736 23.404-21.891 24.04-19.134-7.314-31.654l-30.473-12.165c-37.14-14.816-45.7-18.096-46.276-17.73-.695.44.687 1.718 31.621 29.263 24.396 21.722 23.696 20.934 21.047 23.72-1.176 1.236-2.97 4.614-3.988 7.506s-2.877 7.707-4.133 10.7a397 397 0 0 0-4.025 10.008l-1.741 4.567 5.436 1.083c3.002.598 6.463.432 7.728-.37zm-217.133-55.225c4.47 2.06 31.78-4.099 32.42-7.31.226-1.142 1.684-2.632 3.238-3.312 3.24-1.415 12.89-19.487 11.48-21.496-.78-1.112-29.588-6.416-36.24-6.672-4.07-.157-46.306 31.156-44.844 33.246 2.384 3.41 24.909 8.192 27.915 5.928 1.934-1.457 3.486-1.556 6.03-.384zm-214.38-57.3c6.396-4.312 17.363-11.71 24.372-16.44s17.27-11.585 22.803-15.233c5.532-3.648 10.345-7.407 10.694-8.353s1.221-2.316 1.937-3.046c1.17-1.19-2.81-9.782-14.223-30.7-1.66-3.042-6.813-12.848-11.45-21.79-9.871-19.033-9.77-18.98-24.22-12.828-5.776 2.458-17.374 7.313-25.773 10.789-20.525 8.493-19.819 5.185-10.595 49.597 4.195 20.195 8.353 40.402 9.24 44.903 1.474 7.476 2.736 10.298 4.817 10.766.423.095 6.001-3.354 12.398-7.666zm165.33 16.318c10.438-.39 27.362-.927 37.61-1.195 23.456-.613 22.555.42 13.182-15.086-10.904-18.039-10.648-17.876-38.91-24.638-12.974-3.104-29.947-7.307-37.716-9.34-17.815-4.661-17.005-5.244-19.832 14.262-3.907 26.95 9.289 37.352 45.666 35.997zm97.622 4.272c.587-.603 1.881-.935 2.876-.737 2.456.489 20.128-11.463 20.745-14.03.27-1.128 1.163-2.95 1.983-4.049.843-1.13 1.492-6.977 1.495-13.46.002-6.305.003-13.026.002-14.934-.003-5.223-3.79-6.092-15.322-3.518-5.684 1.27-10.735 1.949-11.225 1.51-.49-.438-1.011-.196-1.158.538-.146.734-.897 1.21-1.669 1.056-.771-.154-12.125 1.785-25.23 4.31-13.104 2.524-24.548 4.47-25.43 4.326-3.404-.559 13.579 29.653 17.132 30.476 1.22.283 2.473 1.155 2.784 1.937.326.82 7.22 2.748 16.257 4.548s16.145 2.66 16.76 2.027zm223.533 39.28c.21-1.05.954-9.163 1.655-18.027s1.679-20.165 2.171-25.112c1.105-11.095.929-13.142-1.25-14.47-2.56-1.562-30.118.679-32.36 2.63-1.066.928-2.997 1.317-4.292.866-2.746-.958-6.646-.615-16.537 1.452-3.94.823-18.844 3.713-33.12 6.42-25.907 4.915-30.19 6.808-22.506 9.946 1.494.61 5.573 2.283 9.063 3.715 3.49 1.433 13.796 5.531 22.901 9.108 41.411 16.265 54 21.232 61.104 24.108 8.127 3.291 12.43 3.083 13.17-.636zm-172.37-46.745c2.281 2.147 4.889 2.649 21.86 4.202 28.647 2.622 27.975 2.63 30.193-.336 2.569-3.436-13.412-57.784-17.939-61.009-2.78-1.98-49.563 7.97-54.37 11.564-1.097.82-2.567.865-3.454.108-.963-.823-.945-.251.047 1.516.875 1.559 1.559 8.43 1.52 15.269-.04 6.839-.002 13.922.083 15.74.085 1.82-.05 3.752-.302 4.296-.25.545.168.772.93.505.763-.267 1.496.008 1.629.61.63 2.845 10.017 7.01 13.632 6.048 2.966-.788 4.027-.533 6.171 1.487zm-223.848-53.78c26.183.443 26.472.43 29.317-1.375 1.458-.926 3.342-3.26 4.186-5.186 16.51-37.682 21.802-50.665 21.076-51.7-1.221-1.738-7.778-.554-9.23 1.668-.657 1.006-2.335 1.601-3.73 1.323-3.057-.609-28.16 16.315-28.774 19.4-.233 1.17-1.61 2.242-3.058 2.384-6.085.595-36.435 33.553-30.695 33.331 1.977-.076 11.386-.007 20.908.155zm-9.7-19.349c8.578-8.588 15.618-16.326 15.646-17.195.027-.868.632-2.376 1.345-3.35 1.852-2.529-16.555-51.935-20.143-54.066-3.414-2.027-32.31-2.261-32.707-.264-.154.775-1.987 2.333-4.072 3.461-5.497 2.975-12.834 12.415-12.634 16.254.162 3.104 2.392 7.881 14.068 30.138 3.18 6.061 9.2 17.72 13.376 25.906 9.123 17.88 6.282 17.98 25.122-.884zm295.58 72.672c1.133-1.396 11.46-15.408 22.949-31.137s21.733-29.539 22.763-30.689c2.323-2.591 4.524-42.766 2.415-44.052-2.093-1.277-70.944 42.62-71.54 45.61-.274 1.38 3.48 15.883 8.342 32.231 9.008 30.285 10.698 33.43 15.072 28.037zm24.937-.747c12.282-2.318 24.91-4.749 28.06-5.403 3.152-.653 9.102-1.834 13.224-2.625 8.388-1.608 9.32-3.092 5.67-9.023-4.206-6.833-6.702-10.985-14.801-24.62-10.718-18.042-9.16-18.66-32.56 12.907-10.706 14.443-20.26 27.127-21.229 28.185-5.082 5.547-4.743 5.556 21.636.579zm-195.6-34.551c1.343-1.354 3.548-6.075 4.899-10.49s4.944-15.69 7.986-25.056c3.041-9.365 5.336-17.303 5.1-17.64-.421-.6-47.763 15.825-65.112 22.589-4.818 1.878-9.809 3.796-11.09 4.262-1.28.465-6.563 2.753-11.738 5.083l-9.41 4.237 6.064 1.936c3.335 1.065 16.986 4.488 30.335 7.607 13.35 3.12 24.475 5.943 24.724 6.275 1.892 2.523 16.006 3.45 18.241 1.197zm10.462 1.611c3.324-.499 8.621-1.44 11.772-2.093 14.453-2.993 53.767-10.262 54.6-10.096 2.616.521 9.515-6.23 12.798-12.52 2.044-3.917 6.577-12.151 10.074-18.298 10.208-17.942 11.915-16.586-19.756-15.694-12.777.36-30.221.85-38.764 1.089-10.432.291-15.647 1.001-15.878 2.162-.189.95-1.505 1.784-2.925 1.852-2.108.102-3.056 1.752-5.173 9.003-1.425 4.883-4.963 16.071-7.86 24.863-5.73 17.386-6.527 20.321-5.565 20.513.348.069 3.353-.282 6.677-.781zm-69.224-29.708c10.684-4.369 28.051-10.92 38.593-14.56 42.92-14.818 41.27-13.827 48.69-29.249 8.395-17.445 9.473-16.171-16.954-20.043-17.048-2.498-19.05-2.538-22.342-.45-2.63 1.67-4.46 1.906-6.716.867-3.35-1.543-35.588 10.741-36.196 13.792-.162.814-1.254 1.971-2.428 2.572-1.173.6-2.932 3.124-3.909 5.606-1.698 4.316-7.541 17.719-15.619 35.825-6.528 14.634-6.384 14.18-4.393 13.87 1.017-.159 10.59-3.862 21.274-8.23zM39.161 146.085c13.354-5.498 24.437-10.789 24.63-11.756s1.662-2.13 3.266-2.583c3.975-1.125 13.654-13.212 13.403-16.739-.223-3.151-1.846-2.947 22.296-2.801 19.784.12 29.063-10.553 32.681-37.589 1.327-9.92-19.205-27.283-24.826-20.994-2.046 2.29-23.364 24.426-47.374 49.193C10.034 157.698 10.771 156.9 13.785 156.3c.603-.12 12.023-4.717 25.376-10.216zm477.891 104.639c10.457-.756 15.588-2.435 16.156-5.284.533-2.679-22.855-80.443-24.28-80.727-1.588-.316-38.423 37.067-38.904 39.484-.395 1.983 25.26 43.591 28.165 45.677 1.56 1.12 3.778 1.963 4.93 1.872 1.15-.091 7.42-.551 13.933-1.022zM173.145 148.945c.142-2.828-33.42-69.4-35.226-69.87-1.27-.33-11.207 28.472-11.65 33.772-.267 3.188 1.294 9.936 3.97 17.17 2.426 6.554 6.724 18.19 9.552 25.858l5.14 13.941 14.026-8.814c11.374-7.148 14.055-9.426 14.188-12.057zm255.95 28.53c41.013-25.316 38.356-22.604 26.598-27.145-5.083-1.963-16.636-6.78-25.672-10.702-19.645-8.527-23.538-8.97-29.916-3.396-2.486 2.173-11.696 9.73-20.465 16.795s-16.176 14.001-16.457 15.414c-.435 2.183 26.333 29.957 29.66 30.774.406.1 16.72-9.683 36.252-21.74zm-126.547-7.922c12.529-.343 29.752-.794 38.274-1.002l15.494-.378-9.366-15.843c-5.151-8.714-11.917-20.332-15.034-25.817-7.648-13.457-8.003-13.46-27.32-.185l-15.909 10.933-7.21 14.759c-8.713 17.835-8.836 18.303-4.81 18.22a9769 9769 0 0 0 25.881-.687zM189.364 146.85c3.08-2.11 13.39-32.184 11.587-33.797-.52-.464-.578-2.682-.131-4.929.447-2.246.429-4.721-.042-5.5-.47-.778-1.945-6.202-3.277-12.052s-2.685-10.69-3.005-10.754c-.321-.064-8.63-.58-18.465-1.15-9.835-.567-20.854-1.24-24.487-1.494-13.242-.927-13.266-2.553.342 23.293 6.164 11.707 14.104 26.91 17.643 33.785s7.276 12.935 8.302 13.467c3.083 1.596 8.533 1.185 11.533-.87zm300.384 32.899c20.695-21.623 20.713-18.364-.238-44.54-42.87-53.561-39.51-50.69-32.046-27.385 2.736 8.54 6.742 21.378 8.904 28.53 2.161 7.15 4.956 14.359 6.21 16.018 1.882 2.487 1.928 3.377.26 5.076-1.819 1.853-4.61 33.639-3.617 41.187.306 2.33-.413 2.99 20.527-18.886zm-123.322-18.846c11.662-8.883 37.525-30.39 37.129-30.876-.665-.813-76.046-16.866-76.174-16.221-.147.733 16.833 30.196 23.568 40.896 2.526 4.013 4.912 8.173 5.302 9.245 1.147 3.152 2.619 2.712 10.175-3.044zm-83.521-25.038c1.154-.733 2.876-1.178 3.827-.988.95.189 4.41-1.628 7.688-4.038s10.522-7.388 16.098-11.061 10.3-7.496 10.5-8.493c.495-2.49-24.513-33.498-26.711-33.12-2.871.493-55.123 49.699-54.484 51.307.892 2.244 40.385 8.104 43.082 6.393zm-112.917-59.35 25.059 1.447 3.967-7.071c18.65-33.238 19.014-34.504 11.715-40.776-6.52-5.603-8.924-4.398-38.464 19.296-26.698 21.414-30.862 25.14-28.478 25.49.629.092 12.42.819 26.201 1.615zm237.134 49.128c3.057-.914 38.667-34.167 39.142-36.55.319-1.602-6.849-2.643-28.749-4.174-21.1-1.475-43.729-3.104-62.208-4.479-5.953-.443-15.089-1.105-20.302-1.471s-15.41-1.135-22.658-1.708c-7.25-.572-13.258-.65-13.353-.171-.323 1.62 23.886 30.917 25.875 31.313 1.086.216 2.228 1.033 2.54 1.816.893 2.25 75.495 16.685 79.713 15.424zM272.21 70.437c10.983.768 20.233 1.228 20.556 1.023 1.322-.84-21.06-44.92-23.93-47.13-3.744-2.884-27.76-8.035-28.157-6.04-.141.71-1.779 1.524-3.639 1.808-4.01.612-14.057 11.21-14.969 15.79-.72 3.614 21.691 30.467 24.998 29.952.972-.151 2.039.409 2.37 1.245.765 1.925-.655 1.716 22.771 3.352zm52.368 5.735c8.925.687 22.926 1.74 31.113 2.34 17.464 1.279 55.598 4.115 62.703 4.664 34.71 2.68 36.259 4.536-19.504-23.373-25.923-12.975-48.52-24.374-50.218-25.333-10.755-6.074-30.295-15.291-31.89-15.043-2.143.334-3.621 3.61-8.775 19.445-1.983 6.092-5.207 15.955-7.164 21.919-4.181 12.74-4.06 13.41 2.503 13.82 2.752.171 12.306.874 21.231 1.561z"/>
</svg>
