<?xml version="1.0" encoding="UTF-8" standalone="no"?>
<!-- Created with Inkscape (http://www.inkscape.org/) -->

<svg
   version="1.1"
   id="svg1"
   width="554"
   height="554"
   viewBox="0 0 554 554"
   xmlns="http://www.w3.org/2000/svg"
   xmlns:svg="http://www.w3.org/2000/svg">
  <defs
     id="defs1" />
  <g
     id="g1">
    <path
       style="fill:none;fill-opacity:1;stroke:#000000;stroke-width:1.31549;stroke-opacity:1"
       d="m 362.70685,449.18054 c -0.20285,-2.85737 -73.28861,-80.98444 -76.25651,-81.51653 -2.72628,-0.48879 -4.88842,-3.10387 -4.43765,-5.36734 0.52426,-2.63248 -25.83752,-45.34491 -29.59702,-47.95431 -4.49788,-3.12188 -28.9953,-9.45112 -29.36649,-7.58722 -0.1588,0.7974 -1.79356,1.15012 -3.63278,0.78384 -4.19829,-0.83609 -26.72219,8.34661 -29.4622,12.01136 -1.95256,2.61153 -9.81383,2.72529 -9.29788,0.13455 0.11594,-0.58219 -3.67351,-2.49595 -8.42101,-4.25283 -32.65417,-12.08411 -33.97409,-12.49062 -37.40559,-11.52009 -2.81657,0.79661 -3.70101,0.52916 -5.38095,-1.62718 -3.56672,-4.57823 -61.074652,-15.38948 -65.057112,-12.23045 -3.247061,2.57567 -6.9275,0.19626 -6.121862,-3.95779 0.491394,-2.53637 -26.073001,-21.44976 -29.399653,-20.93177 -3.245414,0.50534 -5.734912,-3.06303 -4.254599,-6.09842 1.769268,-3.62791 -16.1323038,-91.44809 -19.6148508,-96.22497 -2.9356071,-4.02666 -2.4161107,-6.02562 1.801944,-6.93373 2.22352,-0.47871 39.5161248,-37.49868 55.4479158,-55.04255 1.4749,-1.624151 3.900718,-4.184351 5.390703,-5.689341 1.489986,-1.50499 6.991842,-7.190294 12.226386,-12.634026 5.234528,-5.443724 14.55477,-15.085829 20.711638,-21.426908 7.59375,-7.820917 11.40352,-12.751947 11.8447,-15.33072 0.5816,-3.399582 1.06939,-3.718785 4.61365,-3.019132 2.36595,0.467201 12.16203,-1.485107 24.30616,-4.843726 11.18858,-3.094346 28.29149,-7.815284 38.00647,-10.490992 9.71497,-2.675698 18.54985,-5.550517 19.63304,-6.388484 2.58477,-1.99958 6.90674,-1.077275 7.40612,1.580461 0.52082,2.771759 8.36146,8.417604 11.82251,8.513089 3.69467,0.101916 14.64615,-11.426042 15.02996,-15.821116 0.36443,-4.173088 4.31724,-5.175061 6.9721,-1.767308 2.56321,3.290119 25.63093,7.996652 27.22668,5.555091 1.56356,-2.392298 4.90479,-2.580845 7.3082,-0.412405 2.14016,1.930927 28.58701,-2.597055 34.41049,-5.891439 3.17954,-1.798701 6.5349,-1.079894 7.46381,1.598947 0.89039,2.567758 128.95395,67.43648 132.7709,67.253165 2.65685,-0.127617 5.86615,3.310097 5.50508,5.896883 -0.24003,1.719533 53.23715,68.371251 55.38146,69.025151 0.77457,0.23613 2.15256,0.66749 3.06223,0.95843 1.01978,0.32613 1.25137,2.08165 0.60397,4.57846 -1.14172,4.40326 20.42637,81.62846 23.79592,85.20199 1.25505,1.33103 1.2945,3.02788 0.13768,5.92395 -2.29304,5.74068 -6.18095,57.56222 -4.61833,61.55749 1.14499,2.92748 0.95021,3.42371 -1.91164,4.87008 -2.82006,1.42526 -15.44208,12.8046 -41.27304,37.20957 -4.41839,4.17448 -8.21576,8.50549 -8.43861,9.62449 -0.61675,3.09689 -4.82388,4.87397 -6.35993,2.6864 -1.97612,-2.81433 -14.70405,-4.87839 -16.17778,-2.62352 -0.81482,1.24668 -2.24907,1.46533 -4.29577,0.65491 -4.33175,-1.71523 -25.61436,11.74405 -26.73157,16.90523 -0.86802,4.00995 -6.55586,4.76261 -7.26998,0.96202 -0.58888,-3.13399 -40.85841,-11.24297 -41.43578,-8.34379 -0.2307,1.15841 -1.6112,1.64463 -3.56486,1.25556 -10.47637,-2.08637 -18.21077,15.75102 -15.04415,34.69537 1.21317,7.25778 2.67962,16.89441 3.25878,21.41474 0.77723,6.06609 1.84873,8.77107 4.09096,10.32736 2.16667,1.50383 2.7561,2.89435 2.05527,4.84846 -1.2775,3.562 -7.20282,3.48339 -7.45714,-0.0989 z M 356.3657,389.1109 c 2.44503,-0.34122 14.77027,-12.40395 15.2778,-14.95241 0.18021,-0.90491 1.11346,-2.14396 2.07388,-2.75342 1.86991,-1.18662 1.24026,-4.59292 -10.00543,-54.1296 -3.25575,-14.34143 -6.72673,-29.92142 -7.71327,-34.62218 -2.87392,-13.69397 0.41387,-16.90792 -39.81054,38.91639 -11.58026,16.07132 -22.33545,30.92322 -23.90044,33.00422 -4.45042,5.91786 -3.83946,6.38927 25.32266,19.53845 15.14765,6.83007 28.93319,13.18482 30.63453,14.12167 1.70135,0.93686 3.73463,1.58579 4.51843,1.44205 0.78379,-0.14373 2.40486,-0.39806 3.60238,-0.56517 z m -64.79707,-37.39259 c 3.4283,-4.54224 9.41802,-12.63642 13.3105,-17.98707 3.89248,-5.35065 9.08379,-12.442 11.53623,-15.75857 2.45243,-3.31656 4.50903,-6.28138 4.57019,-6.58849 0.0612,-0.3071 2.16204,-3.26174 4.66861,-6.56587 21.43737,-28.2583 23.02278,-31.01044 21.21486,-36.82693 -3.6302,-11.67918 -26.61093,-7.66211 -34.76429,6.07684 -0.43245,0.72871 -1.72206,2.02306 -2.86578,2.87632 -2.1151,1.57795 -11.74181,20.06808 -11.92764,22.90958 -0.21443,3.27871 -1.10682,4.63243 -2.82783,4.28969 -5.33592,-1.06265 -37.51764,8.59833 -37.06585,11.1272 0.20487,1.14671 26.89558,44.50234 27.46668,44.61608 0.24807,0.0494 3.25602,-3.62655 6.68432,-8.16878 z m 131.78175,27.96612 c 0.54938,-0.56514 -1.10939,-16.66871 -3.68617,-35.7857 -2.57677,-19.117 -5.58626,-41.71865 -6.68774,-50.22592 -1.86843,-14.43067 -5.08845,-23.22195 -8.12202,-22.17469 -0.64695,0.22335 -11.03326,-0.51435 -23.08069,-1.63931 -19.17334,-1.79036 -21.9599,-1.7668 -22.34938,0.18888 -0.24472,1.22883 -1.08884,2.45935 -1.8758,2.73447 -0.86659,0.30296 -0.92595,3.03458 -0.15055,6.92665 1.13057,5.67481 8.71926,39.24661 11.38576,50.36977 0.54427,2.27045 2.65458,11.83034 4.68957,21.24419 2.03496,9.41386 4.16703,17.94619 4.73792,18.96073 1.25488,2.23014 43.54743,11.03823 45.1391,9.40093 z m 16.42648,-8.24731 c 6.712,-4.23171 12.35031,-8.43047 12.52956,-9.33056 0.17925,-0.90009 2.04083,-1.62284 4.13684,-1.60611 4.15785,0.0332 17.13248,-27.39339 14.63892,-30.94463 -0.56089,-0.79882 -0.81271,-2.61993 -0.55959,-4.04693 0.34332,-1.93537 -2.98237,-5.61051 -13.08988,-14.46542 -7.45254,-6.52898 -19.065,-16.88982 -25.80545,-23.0241 -19.40626,-17.66102 -19.73618,-17.14527 -14.38968,22.49477 2.12707,15.77063 5.04039,37.59632 6.47404,48.50156 1.43364,10.90524 2.889,19.89246 3.23411,19.97159 0.34511,0.0792 6.11912,-3.31844 12.83113,-7.55017 z M 182.54371,314.5672 c 2.39343,-1.51885 2.41701,-40.24005 0.0257,-42.20213 -0.99305,-0.81479 -1.63465,-2.33956 -1.42578,-3.38837 0.66789,-3.35371 -20.1978,-16.62487 -22.46758,-14.29001 -2.97524,3.06053 -21.82366,43.44773 -20.89439,44.77115 2.59976,3.70248 41.85613,16.95339 44.76206,15.10936 z m 32.92106,-11.09487 c 0.1773,-0.89031 4.4076,-4.29272 9.40068,-7.56088 19.50789,-12.76877 39.12264,-27.9796 36.65401,-28.42441 -1.32891,-0.23946 -18.27813,0.0989 -37.66494,0.75192 l -35.24875,1.18728 -1.18884,6.25168 c -1.62114,8.52431 -1.55201,37.33132 0.093,38.80195 1.62621,1.45379 27.50232,-8.73522 27.95485,-11.00753 z m -84.37604,-6.28722 c 4.76961,-1.27305 26.45785,-41.50198 24.37482,-45.21219 -0.64066,-1.14111 -0.28688,-2.56282 1.017,-4.08698 1.93766,-2.265 7.05791,-26.38364 6.69283,-31.52616 -0.28427,-4.00423 -2.22989,-4.30888 -28.86371,-4.51968 -26.90223,-0.21289 -28.60874,0.14949 -32.15719,6.82882 -2.14409,4.03587 -14.83361,27.22959 -28.26229,51.65746 -3.648849,6.63754 -6.807278,12.93696 -7.018725,13.99871 -0.561878,2.82139 57.937065,14.53628 64.217265,12.86002 z m 343.8202,65.87699 c 1.25988,-0.7995 2.96532,-1.05276 3.78986,-0.56281 0.82453,0.48996 3.15368,-0.6928 5.1759,-2.62832 2.02223,-1.93554 12.44061,-11.71666 23.15197,-21.73582 23.40403,-21.89164 24.04107,-19.13435 -7.31318,-31.65382 -13.26275,-5.29569 -26.97602,-10.77022 -30.47397,-12.16561 -37.14031,-14.816 -45.69996,-18.09566 -46.27526,-17.73059 -0.69492,0.44098 0.68642,1.71935 31.6211,29.26406 24.39543,21.72204 23.69579,20.93356 21.04642,23.71948 -1.17604,1.23664 -2.97053,4.61447 -3.98776,7.50629 -1.01723,2.89181 -2.87727,7.70659 -4.13342,10.69952 -1.25616,2.99293 -3.06737,7.49687 -4.02493,10.00874 l -1.741,4.56706 5.43679,1.08273 c 3.00139,0.59773 6.46289,0.43158 7.72748,-0.37091 z M 257.77559,307.8374 c 4.47012,2.05916 31.77992,-4.09926 32.41947,-7.31063 0.22743,-1.142 1.68506,-2.63211 3.2392,-3.31138 3.23918,-1.41572 12.89038,-19.48773 11.47997,-21.49639 -0.78097,-1.11226 -29.58847,-6.41597 -36.23952,-6.67203 -4.07031,-0.1567 -46.30677,31.15578 -44.84493,33.24632 2.38374,3.40891 24.90922,8.19203 27.91516,5.92758 1.93418,-1.45704 3.48587,-1.55572 6.03065,-0.38347 z M 43.395538,250.53629 c 6.396251,-4.31151 17.363932,-11.70916 24.372593,-16.43923 7.008673,-4.73006 17.26979,-11.58483 22.802502,-15.23283 5.532694,-3.648 10.345237,-7.40682 10.694517,-8.35291 0.34927,-0.9461 1.22096,-2.31681 1.93708,-3.046 1.16986,-1.19124 -2.81066,-9.7827 -14.223713,-30.70021 -1.659714,-3.04187 -6.812316,-12.84773 -11.450225,-21.79081 -9.870368,-19.03258 -9.769356,-18.97907 -24.219456,-12.8278 -5.775822,2.45872 -17.373454,7.31398 -25.772539,10.78952 -20.5254938,8.49342 -19.8188468,5.18543 -10.59484,49.59651 4.194608,20.1959 8.352447,40.40229 9.23964,44.90309 1.473737,7.47646 2.736148,10.29799 4.817273,10.76685 0.422275,0.0946 6.000906,-3.35467 12.397168,-7.66618 z m 165.330102,16.31822 c 10.43789,-0.38892 27.36279,-0.9263 37.61091,-1.19419 23.45594,-0.61315 22.55416,0.41891 13.1817,-15.08606 -10.90417,-18.03887 -10.6481,-17.87673 -38.90987,-24.63834 -12.9748,-3.1042 -29.94701,-7.30719 -37.71601,-9.33998 -17.81503,-4.66135 -17.00547,-5.24353 -19.83275,14.26251 -3.90624,26.95 9.28943,37.35145 45.66602,35.99606 z m 97.62202,4.27287 c 0.58697,-0.6038 1.88149,-0.93564 2.87673,-0.73744 2.4553,0.48897 20.12714,-11.46283 20.74426,-14.02973 0.27126,-1.12811 1.1638,-2.95006 1.98353,-4.04879 0.84303,-1.12992 1.49218,-6.97701 1.49441,-13.46096 0.002,-6.30481 0.003,-13.02505 0.002,-14.93384 -0.003,-5.22253 -3.78923,-6.0918 -15.32132,-3.51738 -5.6839,1.26888 -10.73547,1.94847 -11.22571,1.51022 -0.49024,-0.43826 -1.01094,-0.19623 -1.15714,0.53791 -0.1462,0.73409 -0.89725,1.20898 -1.66897,1.05529 -0.77174,-0.15369 -12.12508,1.78583 -25.22965,4.31006 -13.10458,2.52421 -24.54831,4.47104 -25.43053,4.32629 -3.40428,-0.5586 13.57845,29.65322 17.13133,30.47619 1.22067,0.28276 2.47374,1.15439 2.7846,1.93699 0.32549,0.81943 7.22044,2.74828 16.25717,4.54794 9.03674,1.79966 16.14458,2.65947 16.75916,2.02725 z m 223.53324,39.27958 c 0.20923,-1.0506 0.95419,-9.16297 1.6555,-18.02746 0.70129,-8.86452 1.67818,-20.16459 2.17085,-25.11128 1.10506,-11.0951 0.92826,-13.14268 -1.24948,-14.47075 -2.56018,-1.5613 -30.11875,0.67906 -32.36097,2.63076 -1.06567,0.92761 -2.99685,1.31719 -4.29151,0.86576 -2.74625,-0.9576 -6.646,-0.61519 -16.53685,1.45195 -3.93982,0.82342 -18.84419,3.71283 -33.1208,6.42091 -25.90677,4.9142 -30.18939,6.80676 -22.50559,9.94564 1.49426,0.61042 5.57271,2.28211 9.06322,3.71486 3.4905,1.43275 13.79589,5.53101 22.90085,9.10723 41.4111,16.26531 54.00066,21.23257 61.10421,24.10891 8.12676,3.29066 12.42989,3.08268 13.17057,-0.63653 z M 357.51146,263.66154 c 2.28077,2.14787 4.8881,2.64915 21.8588,4.20254 28.64782,2.62224 27.97618,2.62971 30.19361,-0.33609 2.56898,-3.43599 -13.4115,-57.78442 -17.93884,-61.00871 -2.77968,-1.9796 -49.56313,7.97035 -54.36999,11.56349 -1.09662,0.81974 -2.56663,0.8656 -3.45404,0.10779 -0.96281,-0.82222 -0.94523,-0.25105 0.0466,1.516 0.87536,1.55941 1.55942,8.43059 1.52014,15.26929 -0.0393,6.8387 -0.002,13.92198 0.0831,15.74064 0.085,1.81865 -0.0507,3.75182 -0.30168,4.29592 -0.25094,0.54411 0.16758,0.77119 0.93003,0.50464 0.76246,-0.26657 1.49537,0.008 1.62869,0.61071 0.62946,2.84452 10.01731,7.00928 13.63223,6.04772 2.96569,-0.78888 4.02693,-0.53333 6.17127,1.48606 z M 133.66318,209.88199 c 26.18285,0.4432 26.47224,0.42963 29.31632,-1.37517 1.45868,-0.92566 3.3427,-3.25918 4.18671,-5.18559 16.50936,-37.68213 21.80193,-50.66506 21.07563,-51.69942 -1.22103,-1.73895 -7.77764,-0.55449 -9.22981,1.66738 -0.6571,1.00537 -2.33521,1.60083 -3.72913,1.32323 -3.05812,-0.60902 -28.16091,16.31453 -28.77527,19.39942 -0.23288,1.16941 -1.60872,2.24217 -3.05738,2.38392 -6.08482,0.59537 -36.43528,33.55289 -30.69503,33.33169 1.97705,-0.0762 11.38563,-0.007 20.90796,0.15454 z M 123.96353,190.533 c 8.57751,-8.58835 15.61775,-16.32591 15.64498,-17.19457 0.0272,-0.86867 0.63279,-2.37611 1.3457,-3.34987 1.85173,-2.52922 -16.55562,-51.93517 -20.14363,-54.06624 -3.41373,-2.02756 -32.30869,-2.26134 -32.706333,-0.26464 -0.15439,0.77524 -1.98696,2.33298 -4.07239,3.46161 -5.49673,2.97485 -12.834141,12.41462 -12.633999,16.25397 0.161801,3.10381 2.391821,7.8812 14.067869,30.13787 3.17984,6.06136 9.199357,17.71916 13.3767,25.90624 9.122523,17.87901 6.281533,17.97903 25.121103,-0.88437 z m 295.57998,72.67189 c 1.13223,-1.39606 11.45901,-15.40753 22.94839,-31.13659 11.48937,-15.72907 21.73298,-29.53919 22.76355,-30.68919 2.3222,-2.59126 4.52392,-42.76591 2.41424,-44.05249 -2.09308,-1.27644 -70.94326,42.62043 -71.53884,45.61107 -0.2746,1.37887 3.47902,15.88262 8.34138,32.23056 9.00751,30.28457 10.69788,33.42911 15.07128,28.03664 z m 24.93615,-0.74719 c 12.28281,-2.3177 24.91032,-4.74874 28.06115,-5.40233 3.15082,-0.65356 9.10131,-1.83483 13.22331,-2.62501 8.38769,-1.60793 9.32057,-3.09246 5.67019,-9.02311 -4.20623,-6.83365 -6.70209,-10.98502 -14.80158,-24.6195 -10.7182,-18.04271 -9.16039,-18.6602 -32.55931,12.90585 -10.70657,14.44358 -20.25974,27.12699 -21.22927,28.18533 -5.08186,5.5473 -4.74353,5.55635 21.63551,0.57877 z m -195.6004,-34.55087 c 1.34356,-1.35398 3.54828,-6.07437 4.89938,-10.48977 1.3511,-4.4154 4.94485,-15.69053 7.98611,-25.05587 3.04126,-9.36534 5.33603,-17.30351 5.09949,-17.64038 -0.42067,-0.59912 -47.76194,15.82497 -65.11149,22.5891 -4.81817,1.87849 -9.80837,3.79634 -11.08936,4.26192 -1.28099,0.46558 -6.5633,2.75308 -11.73846,5.08336 l -9.40941,4.23685 6.06344,1.93582 c 3.33489,1.06469 16.98566,4.48801 30.33503,7.60735 13.34937,3.11935 24.47502,5.94277 24.72363,6.27432 1.89258,2.52361 16.00628,3.44996 18.24164,1.1973 z m 10.46261,1.61115 c 3.32406,-0.49873 8.62151,-1.44052 11.77209,-2.09286 14.45322,-2.99264 53.76682,-10.26183 54.60053,-10.0958 2.61522,0.52082 9.51479,-6.22949 12.7972,-12.52035 2.04383,-3.9171 6.5774,-12.1511 10.07458,-18.2978 10.20808,-17.94185 11.91437,-16.58642 -19.75665,-15.69406 -12.77706,0.36002 -30.22089,0.84991 -38.76407,1.08865 -10.43192,0.29151 -15.64608,1.00167 -15.87725,2.16244 -0.18931,0.95059 -1.50562,1.78413 -2.92512,1.8523 -2.10775,0.10124 -3.05615,1.75169 -5.173,9.00226 -1.42564,4.88307 -4.96293,16.07163 -7.86066,24.86348 -5.73011,17.38546 -6.52648,20.32087 -5.565,20.51234 0.34848,0.0694 3.35328,-0.28186 6.67735,-0.7806 z m -69.22338,-29.70846 c 10.68388,-4.36821 28.0505,-10.91999 38.59248,-14.55953 42.91987,-14.81775 41.27084,-13.82715 48.69085,-29.24887 8.39379,-17.44561 9.47178,-16.17128 -16.95529,-20.04343 -17.04719,-2.49779 -19.04958,-2.53804 -22.34129,-0.44918 -2.63062,1.66935 -4.46061,1.90534 -6.71656,0.86614 -3.34957,-1.54298 -35.58776,10.74141 -36.19534,13.79228 -0.16204,0.81365 -1.2547,1.97106 -2.42813,2.57197 -1.17343,0.60093 -2.93256,3.12364 -3.9092,5.60604 -1.69798,4.31591 -7.54125,17.71898 -15.61867,35.82548 -6.5282,14.63373 -6.38424,14.17923 -4.39331,13.86923 1.01707,-0.15836 10.59059,-3.86193 21.27446,-8.23013 z M 39.161061,146.08508 c 13.353484,-5.49849 24.436659,-10.78861 24.629279,-11.75582 0.192623,-0.96723 1.662722,-2.12981 3.266899,-2.58352 3.975017,-1.12425 13.653496,-13.21128 13.403087,-16.73851 -0.223719,-3.15134 -1.846015,-2.94751 22.296034,-2.80123 19.7835,0.11987 29.06312,-10.55337 32.68068,-37.588645 1.32744,-9.920546 -19.20467,-27.283237 -24.82615,-20.993882 -2.04607,2.289152 -23.364168,24.425767 -47.373521,49.192467 -53.203526,54.88175 -52.466537,54.08467 -49.452265,53.48471 0.603307,-0.12009 12.022487,-4.7171 25.375957,-10.21557 z M 517.05225,250.72365 c 10.45637,-0.75614 15.58813,-2.43431 16.15548,-5.28316 0.53358,-2.67928 -22.85451,-80.44353 -24.27922,-80.72727 -1.58805,-0.31626 -38.4235,37.06715 -38.9047,39.48345 -0.39502,1.98351 25.26113,43.59176 28.16525,45.67742 1.56024,1.12051 3.77844,1.96273 4.92934,1.87158 1.15091,-0.0911 7.42114,-0.55106 13.93385,-1.02202 z m -343.9075,-101.7784 c 0.14243,-2.8285 -33.42027,-69.400098 -35.22544,-69.869658 -1.27098,-0.330505 -11.20688,28.470988 -11.65035,33.771258 -0.26676,3.18834 1.29375,9.93631 3.97069,17.17 2.42559,6.55453 6.72359,18.19077 9.55109,25.85831 l 5.14095,13.94099 14.02488,-8.81378 c 11.37434,-7.1481 14.05573,-9.42674 14.18818,-12.05712 z m 255.9498,28.5305 c 41.01351,-25.31646 38.35617,-22.60454 26.59891,-27.14542 -5.08393,-1.96352 -16.6366,-6.77941 -25.67259,-10.702 -19.64438,-8.52774 -23.53778,-8.96969 -29.91584,-3.3959 -2.4862,2.17269 -11.69564,9.73047 -20.46543,16.79506 -8.76979,7.0646 -16.17527,14.0006 -16.45661,15.41332 -0.43473,2.18291 26.33271,29.95672 29.6592,30.77434 0.40668,0.1 16.72024,-9.68277 36.25236,-21.7394 z m -126.54646,-7.92257 c 12.52858,-0.34306 29.75175,-0.79388 38.27373,-1.00182 l 15.49452,-0.37806 -9.3663,-15.8434 c -5.15147,-8.71387 -11.91685,-20.33149 -15.03416,-25.81695 -7.64752,-13.45709 -8.0029,-13.45949 -27.31993,-0.18477 l -15.90875,10.93254 -7.21014,14.75906 c -8.71272,17.83489 -8.83639,18.30333 -4.8102,18.22077 1.70611,-0.035 13.35265,-0.34431 25.88123,-0.68737 z M 189.36371,146.84992 c 3.07956,-2.10911 13.39068,-32.1842 11.58701,-33.79662 -0.5193,-0.46423 -0.57812,-2.68222 -0.13071,-4.92885 0.44742,-2.24664 0.42851,-4.72163 -0.042,-5.49998 -0.47053,-0.77837 -1.94528,-6.202041 -3.27725,-12.052632 -1.33194,-5.850575 -2.68428,-10.689704 -3.00519,-10.753613 -0.32092,-0.06391 -8.63012,-0.581087 -18.4649,-1.149292 -9.83478,-0.568218 -20.85385,-1.241094 -24.48682,-1.495289 -13.24229,-0.926566 -13.2662,-2.552853 0.34236,23.292996 6.16416,11.70715 14.10347,26.91067 17.64292,33.78559 3.53945,6.87492 7.27551,12.93493 8.30236,13.46667 3.08206,1.59603 8.53273,1.1853 11.53226,-0.86898 z m 300.38417,32.89858 c 20.6955,-21.62224 20.71288,-18.36337 -0.23747,-44.53858 -42.8706,-53.562157 -39.5112,-50.691304 -32.04623,-27.38581 2.73541,8.53994 6.74204,21.37804 8.9036,28.52911 2.16157,7.15108 4.95659,14.35936 6.21115,16.01839 1.88118,2.4877 1.92666,3.3775 0.25947,5.0762 -1.81896,1.85337 -4.61061,33.63879 -3.61739,41.18727 0.30646,2.32899 -0.41268,2.99066 20.52687,-18.88658 z M 366.4262,160.9028 c 11.66162,-8.88277 37.52526,-30.39045 37.12882,-30.87557 -0.66458,-0.81325 -76.04617,-16.86605 -76.1745,-16.22165 -0.14603,0.73326 16.83327,30.19593 23.56852,40.89637 2.5258,4.01277 4.91174,8.17326 5.30209,9.24554 1.14729,3.15148 2.61846,2.71127 10.17507,-3.04469 z m -83.52127,-25.03828 c 1.15451,-0.73262 2.87654,-1.17722 3.82674,-0.98799 0.9502,0.18923 4.40986,-1.6278 7.68813,-4.03785 3.27827,-2.41006 10.52255,-7.38745 16.0984,-11.06087 5.57585,-3.67344 10.30051,-7.49541 10.49923,-8.49329 0.49574,-2.48924 -24.51222,-33.497294 -26.7109,-33.119605 -2.87093,0.493181 -55.12222,49.698735 -54.48322,51.307385 0.89134,2.24395 40.38457,8.10375 43.08162,6.39222 z m -112.91662,-59.348856 25.05821,1.446781 3.96797,-7.071819 c 18.64949,-33.237598 19.01313,-34.503389 11.71419,-40.775903 -6.5201,-5.603205 -8.92332,-4.397586 -38.46355,19.295943 -26.6985,21.414235 -30.86165,25.140609 -28.47829,25.490418 0.62878,0.09233 12.41946,0.818856 26.20147,1.61458 z m 237.13413,49.127046 c 3.05653,-0.91394 38.66664,-34.166962 39.14132,-36.550479 0.31895,-1.601569 -6.84856,-2.641954 -28.74867,-4.172956 -21.09957,-1.475049 -43.72912,-3.104419 -62.20788,-4.479112 -5.95313,-0.442865 -15.08924,-1.104947 -20.30245,-1.471293 -5.21321,-0.366345 -15.40942,-1.134707 -22.65823,-1.707465 -7.24882,-0.572761 -13.2576,-0.650062 -13.35285,-0.171771 -0.32264,1.620084 23.88633,30.916996 25.87494,31.313026 1.08597,0.21627 2.22883,1.03352 2.53969,1.81612 0.894,2.25062 75.49565,16.68533 79.71413,15.42393 z M 272.21028,70.437355 c 10.98282,0.767158 20.23292,1.227179 20.55581,1.022299 1.32183,-0.838832 -21.06023,-44.919267 -23.93048,-47.129975 -3.7437,-2.883446 -27.75921,-8.035082 -28.15654,-6.039937 -0.14147,0.710352 -1.77901,1.523864 -3.63897,1.807806 -4.01055,0.612245 -14.05681,11.209735 -14.96904,15.790363 -0.71982,3.614455 21.69136,30.467045 24.99807,29.952153 0.9717,-0.151303 2.03846,0.40861 2.37047,1.244811 0.76475,1.925257 -0.65528,1.71619 22.77068,3.35248 z m 52.36722,5.734676 c 8.92513,0.6873 22.92632,1.740191 31.11375,2.339766 17.46347,1.278847 55.5974,4.115335 62.70297,4.663998 34.70928,2.680076 36.2586,4.536683 -19.50449,-23.373188 -25.92256,-12.974444 -48.52041,-24.374067 -50.21745,-25.332494 -10.75544,-6.07426 -30.29482,-15.29146 -31.88966,-15.04313 -2.14323,0.333724 -3.62205,3.610385 -8.77607,19.445444 -1.98262,6.091342 -5.20626,15.954586 -7.16365,21.918322 -4.18138,12.739662 -4.05992,13.410151 2.50324,13.819527 2.75212,0.171676 12.30622,0.874455 21.23136,1.561755 z"
       id="path1" />
  </g>
</svg>
