<?xml version="1.0" encoding="UTF-8" standalone="no"?>
<!-- Created with Inkscape (http://www.inkscape.org/) -->

<svg
   version="1.1"
   id="svg1"
   width="600"
   height="600"
   viewBox="0 0 600 600"
   sodipodi:docname="gBrain.svg"
   inkscape:version="1.4.4 (dcaf3e7d9e, 2026-05-05)"
   xmlns:inkscape="http://www.inkscape.org/namespaces/inkscape"
   xmlns:sodipodi="http://sodipodi.sourceforge.net/DTD/sodipodi-0.dtd"
   xmlns="http://www.w3.org/2000/svg"
   xmlns:svg="http://www.w3.org/2000/svg">
  <defs
     id="defs1">
    <linearGradient
       id="swatch6"
       inkscape:swatch="solid">
      <stop
         style="stop-color:#000000;stop-opacity:1;"
         offset="0"
         id="stop6" />
    </linearGradient>
  </defs>
  <sodipodi:namedview
     id="namedview1"
     pagecolor="#ffffff"
     bordercolor="#000000"
     borderopacity="0.25"
     inkscape:showpageshadow="2"
     inkscape:pageopacity="0.0"
     inkscape:pagecheckerboard="0"
     inkscape:deskcolor="#d1d1d1"
     inkscape:zoom="0.60839844"
     inkscape:cx="512.82183"
     inkscape:cy="388.72552"
     inkscape:window-width="1600"
     inkscape:window-height="831"
     inkscape:window-x="0"
     inkscape:window-y="0"
     inkscape:window-maximized="1"
     inkscape:current-layer="g1" />
  <g
     inkscape:groupmode="layer"
     inkscape:label="Image"
     id="g1">
    <path
       style="display:inline;fill:#121212;fill-opacity:1;stroke:none;stroke-width:1.31789;stroke-opacity:1"
       d="m 385.69439,451.20109 c -6.38719,-6.98353 -26.29277,-28.50952 -44.23461,-47.83554 l -32.62156,-35.13825 -16.4644,-26.46757 -16.46441,-26.46755 -18.47177,-4.8777 -18.47176,-4.87771 -15.15569,4.95561 c -8.33563,2.72559 -17.44595,5.64537 -20.24516,6.4884 l -5.08948,1.53281 -29.8914,-11.88477 -29.89141,-11.88476 -36.61439,-8.09457 -36.614388,-8.09455 -4.339464,-2.94093 c -2.386709,-1.61753 -11.612426,-8.1008 -20.501586,-14.4073 -8.88915,-6.30649 -16.510477,-11.78743 -16.936277,-12.17985 -0.425796,-0.39243 -1.805347,-5.72785 -3.065675,-11.85647 -1.260326,-6.12863 -3.642088,-17.81541 -5.292813,-25.97064 C 13.677423,203.04453 9.8680187,184.08232 6.8628079,169.06154 3.857586,154.04073 1.493998,141.37519 1.6103718,140.91586 1.7267457,140.45654 3.2322562,138.80835 4.9559462,137.25321 6.6796306,135.69809 33.452585,112.28425 64.45137,85.222478 95.450162,58.160723 122.82625,34.234264 125.2871,32.052586 c 2.46087,-2.181676 4.67792,-3.918878 4.9268,-3.860436 0.24886,0.05844 16.29354,-3.055413 35.65483,-6.919667 19.36128,-3.864254 41.30113,-8.24528 48.75519,-9.735596 7.45409,-1.490325 14.07199,-2.5877719 14.70646,-2.4387846 0.63447,0.1489883 4.87737,2.9609236 9.42865,6.2487526 l 8.27509,5.977867 11.04348,-9.060399 11.04349,-9.060395 20.11447,4.2284649 20.11448,4.2284541 13.98021,-1.6628736 c 7.68912,-0.9145885 18.29197,-2.1120292 23.56191,-2.6610071 l 9.58167,-0.9981313 31.68408,17.069542 c 17.42623,9.38825 49.97732,26.897531 72.33575,38.909513 22.3584,12.011994 42.55479,22.909935 44.88082,24.217648 l 4.22916,2.377675 27.37375,34.920497 c 15.05555,19.20626 29.06136,36.98923 31.12405,39.51769 l 3.75031,4.59721 13.72855,48.93734 13.72856,48.93736 -2.75406,18.3077 c -1.51474,10.06924 -3.86419,25.84518 -5.22101,35.05764 l -2.46695,16.74993 -5.58078,4.40291 c -3.06942,2.42161 -15.42381,12.29351 -27.45418,21.93755 -12.03037,9.64405 -23.67496,18.86767 -25.87682,20.49693 l -4.00344,2.96228 -8.5744,-2.00795 -8.57444,-2.00796 -2.4594,0.49088 c -1.35266,0.26998 -10.20342,3.59536 -19.66832,7.38974 -9.46493,3.79437 -17.69841,7.08112 -18.29666,7.30388 l -1.08771,0.40499 -27.05792,-6.38258 -27.05794,-6.3826 -10.7155,9.68206 c -5.89352,5.32513 -10.80564,10.03785 -10.91582,10.47271 -0.11021,0.43485 1.17019,9.54203 2.84526,20.23818 1.67508,10.69615 3.75057,23.57637 4.6122,28.62274 0.86164,5.04636 1.45454,9.61758 1.31756,10.15824 l -0.24907,0.98306 -1.38121,-0.40176 -1.38122,-0.40177 z m 6.38855,-20.25515 -4.20776,-26.21419 -6.90408,-3.15446 c -3.79723,-1.73494 -14.77045,-6.72468 -24.38489,-11.08829 -9.61445,-4.36359 -22.25121,-10.15838 -28.08168,-12.87731 -5.83047,-2.71892 -10.71856,-4.88164 -10.86241,-4.80604 -0.14386,0.0755 16.14013,17.81514 36.18659,39.42123 20.04647,21.60607 37.62107,40.64959 39.05465,42.31892 1.4336,1.66933 2.78674,2.94047 3.00694,2.82474 0.22022,-0.11573 -1.4931,-12.0068 -3.80736,-26.4246 z m 7.93639,-38.61518 10.71915,-9.63404 -3.06922,-15.88626 c -1.68807,-8.73744 -6.13806,-32.24294 -9.88888,-52.23445 -3.75082,-19.9915 -7.01629,-36.39571 -7.25659,-36.45377 -0.24045,-0.0576 -17.54757,19.70888 -38.46057,43.92655 -20.91303,24.21766 -38.10917,44.37262 -38.2137,44.7888 l -0.19054,0.75657 10.42839,4.8302 c 5.73563,2.6566 22.21622,10.23193 36.62352,16.83403 14.40733,6.6021 26.73368,12.16187 27.39195,12.35505 l 1.19681,0.35121 z m -56.1712,-65.76677 c 17.44358,-20.19589 34.7288,-40.17369 38.41159,-44.3951 l 6.696,-7.6753 -0.48387,-0.62824 c -0.26614,-0.34552 -4.42482,-3.13526 -9.24153,-6.19942 l -8.75765,-5.57121 -15.2012,8.39803 -15.20119,8.39803 -7.89477,13.95011 -7.89477,13.95008 -21.95909,4.13492 c -12.0775,2.27421 -22.01701,4.36176 -22.08778,4.63898 -0.0708,0.27723 6.70163,11.48586 15.04982,24.90806 l 15.1785,24.40401 0.83518,-0.79658 c 0.45935,-0.43811 15.10719,-17.32049 32.55076,-37.51637 z m 120.9274,65.80735 c -0.0503,-0.72726 -2.07741,-25.26774 -4.50469,-54.53444 -2.42728,-29.26671 -4.54916,-54.04362 -4.71526,-55.0598 l -0.30201,-1.84762 -8.58445,-0.69515 c -4.72147,-0.38234 -18.36775,-1.59121 -30.32507,-2.68637 l -21.74058,-1.99124 -0.26053,1.02827 c -0.14328,0.56555 1.59668,10.71386 3.86659,22.55179 2.26989,11.83792 6.71371,35.25961 9.87514,52.0482 l 5.74808,30.52471 25.5171,5.99195 25.51712,5.99197 z m 26.17051,-7.66486 13.75688,-5.5625 1.91767,-3.76472 c 1.05472,-2.07059 5.18092,-9.99626 9.16933,-17.61259 3.98838,-7.61633 7.34436,-14.21386 7.45769,-14.66118 l 0.20606,-0.81331 -14.26992,-13.08138 c -7.84845,-7.19474 -22.16181,-20.29018 -31.80748,-29.10096 -9.64567,-8.81079 -17.6811,-15.94418 -17.85653,-15.85199 -0.17541,0.0922 1.40861,21.43071 3.52007,47.41894 2.11145,25.98825 4.13181,50.57771 4.48968,54.64321 l 0.6507,7.39186 4.50449,-1.72145 c 2.47746,-0.94679 10.6951,-4.22455 18.26136,-7.28393 z M 198.30861,291.15659 c 0.56538,-11.62604 0.99904,-22.14036 0.96375,-23.36514 l -0.0643,-2.2269 -12.51009,-9.05508 c -6.88054,-4.98029 -12.71936,-9.11906 -12.97515,-9.19727 -0.25579,-0.0782 -2.39935,2.83213 -4.76348,6.4674 -2.36411,3.63526 -8.91862,13.97227 -14.56555,22.97112 -5.64691,8.99885 -10.12217,16.56879 -9.94496,16.82212 0.17717,0.25333 11.54179,4.93432 25.25467,10.40221 13.7129,5.46788 25.26664,10.12814 25.67496,10.35612 l 0.74242,0.41447 0.57985,-1.2254 c 0.31893,-0.67397 1.04243,-10.73762 1.60778,-22.36365 z m 21.15619,17.59474 18.45872,-5.88601 5.69919,-3.86491 c 3.13457,-2.12567 14.45236,-9.66995 25.15065,-16.76505 10.69828,-7.09511 19.79475,-13.20648 20.21433,-13.58086 l 0.7629,-0.68068 -1.48019,-0.0158 c -0.81409,-0.009 -20.2228,-0.27996 -43.13044,-0.60285 -22.90766,-0.32291 -41.83599,-0.48947 -42.06299,-0.37019 -0.227,0.11929 -0.92488,10.85721 -1.55087,23.86205 -0.62597,13.00484 -0.99906,23.67781 -0.82908,23.71773 0.16997,0.04 8.61548,-2.57614 18.76778,-5.81345 z m -63.54924,-40.3811 15.31161,-24.27864 2.77668,-12.72757 c 1.52718,-7.00016 3.30406,-15.64006 3.94859,-19.19978 l 1.17191,-6.47223 -13.11471,-0.64824 c -7.21307,-0.35653 -21.6011,-1.01855 -31.97339,-1.47115 l -18.85873,-0.82295 -3.10933,4.44027 c -1.71013,2.44216 -11.46528,17.36292 -21.6781,33.15725 -10.212824,15.79435 -19.540665,30.24819 -20.728542,32.11967 l -2.159772,3.40269 36.551074,8.38967 36.55107,8.38967 z m 368.98298,113.7804 c 0.52711,-0.0172 13.96924,-10.42018 29.87136,-23.11773 l 28.91298,-23.08647 -0.53442,-0.69263 c -0.29393,-0.38094 -25.4969,-11.29013 -56.0066,-24.24264 -30.50969,-12.95251 -56.95409,-24.18484 -58.76529,-24.96074 -1.81122,-0.77589 -3.20674,-1.2884 -3.10117,-1.13893 0.10555,0.14951 10.25906,9.45468 22.56333,20.67819 12.30424,11.22353 25.92422,23.69265 30.26659,27.70919 4.3424,4.01652 8.23281,7.75655 8.64536,8.31114 l 0.75012,1.00836 -8.87106,16.87131 c -4.87909,9.27921 -9.2185,17.49542 -9.64313,18.25825 l -0.77208,1.38694 7.86281,1.5235 c 4.32453,0.83793 8.29407,1.50944 8.8212,1.49226 z M 67.706627,269.58457 c 1.328254,-2.14103 10.587944,-16.5239 20.5771,-31.96193 9.989161,-15.43804 18.718203,-28.93659 19.397913,-29.99678 l 1.23582,-1.92761 -40.348972,20.98881 c -22.191927,11.54387 -40.454124,21.16447 -40.58267,21.37913 -0.128507,0.21467 5.324651,4.30265 12.118211,9.08443 6.793561,4.78178 14.954426,10.57627 18.13524,12.87663 l 5.78332,4.18246 0.634516,-0.36618 c 0.349001,-0.2014 1.721282,-2.11793 3.049522,-4.25896 z m 232.544023,38.88373 21.34896,-3.98878 7.24524,-12.61217 c 3.98485,-6.93668 7.1589,-12.73556 7.05341,-12.88637 -0.10555,-0.15089 -9.3071,-2.63361 -20.44803,-5.5173 l -20.2562,-5.24309 -25.49523,17.08199 c -14.02239,9.39513 -25.70826,17.38833 -25.96864,17.76273 l -0.4734,0.68069 5.44391,1.36908 c 2.99418,0.75292 10.43216,2.75281 16.5289,4.44407 6.09672,1.69126 11.66707,3.03517 12.37854,2.98648 0.71146,-0.0487 10.90059,-1.88346 22.64253,-4.07729 z M 69.040735,222.98905 111.67845,200.58703 95.547593,166.88104 C 86.675608,148.34276 78.169663,130.50965 76.645486,127.25192 l -2.771247,-5.92312 -33.910356,10.22316 -33.9103425,10.22316 -0.4785786,0.89277 -0.4785875,0.89275 8.1238166,40.47236 c 4.468099,22.2598 9.066012,45.12561 10.217594,50.8129 1.151579,5.68729 2.289868,10.38657 2.529519,10.44285 0.239652,0.0563 19.622703,-9.97859 43.073431,-22.2997 z m 178.375745,41.48277 c 24.38276,0.34275 44.46876,0.57214 44.63554,0.50974 0.16678,-0.0624 -1.75806,-3.75372 -4.27743,-8.20298 -2.51938,-4.44926 -6.73781,-11.94593 -9.37431,-16.65926 l -4.79363,-8.56973 -10.9075,-3.04371 c -5.99913,-1.67404 -26.35366,-7.3537 -45.23233,-12.62144 -18.87865,-5.26776 -34.47862,-9.49692 -34.66661,-9.39813 -0.18798,0.0988 -2.0847,8.61058 -4.21496,18.91507 -2.13023,10.30449 -3.82036,18.80811 -3.75583,18.8969 0.0646,0.0887 5.91606,4.36669 13.00344,9.50643 7.08737,5.13973 13.4183,9.50222 14.06874,9.69442 0.65043,0.19222 21.13213,0.62992 45.51488,0.97269 z m 106.23969,3.2605 14.8729,-8.27188 0.12541,-6.4173 c 0.069,-3.52952 0.15617,-11.76192 0.19374,-18.29424 0.0376,-6.5323 -0.0561,-12.46784 -0.20793,-13.19009 l -0.27624,-1.31316 -18.38636,2.32983 c -10.11249,1.28139 -30.19324,3.7766 -44.62387,5.54489 -14.43065,1.76828 -26.59125,3.3797 -27.02356,3.58095 l -0.78602,0.36588 9.22871,16.57383 9.2287,16.57381 10.67702,2.9218 c 5.87237,1.60698 15.49822,4.03457 21.39082,5.39467 l 10.71376,2.47292 z m 232.91009,61.43921 c 0.25302,-2.0869 2.38305,-16.71495 4.73338,-32.5068 2.35035,-15.79186 4.16304,-28.87016 4.02822,-29.06292 -0.13482,-0.19274 -9.52103,-0.13773 -20.85826,0.12225 l -20.61314,0.47269 -25.97473,3.47591 c -14.2861,1.91177 -34.26703,4.59714 -44.40206,5.96751 -10.13504,1.37037 -18.75818,2.65682 -19.16255,2.85881 l -0.73522,0.36725 14.73878,6.23963 c 8.10635,3.43178 32.29458,13.71037 53.75163,22.8413 21.45706,9.13093 41.92608,17.89704 45.48669,19.48026 3.56062,1.58323 6.94035,3.02707 7.51052,3.20852 l 1.03667,0.33 z M 425.14895,275.40699 c 16.16454,1.50599 29.49579,2.68558 29.62498,2.62133 0.12912,-0.0641 -1.83971,-8.27195 -4.37529,-18.23935 -2.53559,-9.96739 -5.9564,-23.51337 -7.6018,-30.10218 -1.64539,-6.58881 -3.43339,-13.94934 -3.97333,-16.35671 l -0.98169,-4.37708 -0.74146,-0.17411 c -0.4078,-0.0957 -15.05354,2.31333 -32.54611,5.35351 l -31.80466,5.5276 -0.34273,1.60389 c -0.18844,0.88216 -0.37248,9.79191 -0.40892,19.79946 -0.0364,10.00755 -0.0256,18.2982 0.024,18.42369 0.0497,0.12546 4.6561,3.11099 10.23653,6.63449 l 10.14626,6.40637 1.67701,0.0705 c 0.92234,0.0388 14.90253,1.30263 31.0671,2.8086 z m -274.5205,-73.96309 28.84608,1.34988 0.85485,-0.85301 c 0.47015,-0.46915 7.40032,-13.63042 15.40036,-29.24727 l 14.54552,-28.39428 -0.36366,-0.51993 -0.36368,-0.51993 -7.50715,0.23916 -7.50716,0.23917 -8.83983,4.78748 c -4.86193,2.63311 -13.32462,7.39795 -18.806,10.58849 l -9.96616,5.80101 -18.16029,16.17662 c -9.98816,8.89713 -18.76861,16.79715 -19.51213,17.55557 l -1.35183,1.37895 1.9425,0.0341 c 1.06838,0.0187 14.92325,0.64153 30.78858,1.38399 z m -15.3891,-21.51276 19.10706,-17.0307 -8.63748,-30.91281 -8.63749,-30.91282 -1.46545,0.0352 c -0.80598,0.0193 -10.25939,-0.15142 -21.00758,-0.37951 l -19.542146,-0.41469 -0.955481,0.65383 c -0.525495,0.35962 -4.474294,4.55799 -8.775073,9.32971 -4.300789,4.77172 -7.922462,9.10587 -8.048161,9.63142 -0.125948,0.52552 6.890481,15.83963 15.591503,34.03123 8.701028,18.1916 17.079928,35.68786 18.619748,38.88058 l 2.79972,5.80493 0.92189,-0.84282 c 0.50702,-0.46354 9.52006,-8.50664 20.02894,-17.87353 z m 358.46889,60.72325 27.11817,-27.4527 1.57648,-23.78741 c 0.86706,-13.08306 1.47494,-23.93927 1.35087,-24.12488 -0.12409,-0.18562 -18.85271,9.24681 -41.61915,20.96096 l -41.39355,21.29845 0.93074,4.04848 c 0.51192,2.22667 4.01156,16.29274 7.77698,31.25794 3.76543,14.96522 7.25767,28.63407 7.76056,30.37521 l 0.91432,3.16574 4.2332,-4.14454 c 2.32827,-2.27949 16.43638,-16.49825 31.35138,-31.59725 z m 13.73638,30.79447 c 23.36846,-3.14399 42.68368,-5.81912 42.92271,-5.94473 0.23904,-0.12562 -0.95463,-2.65977 -2.6526,-5.63146 -1.69795,-2.97169 -8.03462,-13.83998 -14.08147,-24.15177 -6.04686,-10.31177 -11.18768,-18.79156 -11.42406,-18.84395 -0.23616,-0.0532 -2.23964,1.735 -4.45171,3.97199 -2.21206,2.237 -15.1444,15.33679 -28.73854,29.11065 -13.59417,13.77388 -25.12765,25.59032 -25.62996,26.25877 l -0.91334,1.21536 1.24044,-0.13426 c 0.68222,-0.0738 20.36006,-2.70662 43.72853,-5.8506 z M 285.92468,200.0736 c 6.57733,-15.40242 11.86124,-28.1439 11.742,-28.31436 -0.11923,-0.17047 -3.83381,0.73726 -8.25461,2.01717 -4.4208,1.2799 -21.27436,6.29234 -37.45239,11.13873 -16.178,4.84641 -37.32833,11.12932 -47.00072,13.96205 l -17.58616,5.15041 3.2531,1.24985 c 1.78922,0.68743 17.1579,5.06914 34.15262,9.73716 16.99473,4.66801 31.95554,8.83467 33.24623,9.25925 1.29067,0.42462 5.40546,1.45419 9.14392,2.28806 l 6.79722,1.51606 z m 10.12895,26.28924 c 7.94385,-1.00014 22.51385,-2.8168 32.37779,-4.03702 9.86397,-1.22019 23.08448,-2.87926 29.37895,-3.68677 l 11.44447,-1.46823 13.7258,-21.78409 c 7.5492,-11.98126 13.77085,-21.96191 13.82592,-22.17924 0.055,-0.21733 -6.81559,-0.5682 -15.26809,-0.77972 -8.45251,-0.21151 -29.19511,-0.74833 -46.09465,-1.19294 -16.89957,-0.44462 -31.37301,-0.67691 -32.16324,-0.51623 l -1.43678,0.29213 -3.51459,8.31055 c -1.93303,4.57081 -7.2231,16.97267 -11.75567,27.55971 -4.53261,10.58704 -8.38248,19.79305 -8.55526,20.45779 l -0.31314,1.20887 1.95309,-0.18307 c 1.07422,-0.10065 8.45262,-1.00135 16.39646,-2.0015 z m -92.78039,-30.15586 c 9.05761,-2.63677 31.10963,-9.14953 49.00443,-14.47282 17.89484,-5.32331 35.87916,-10.66514 39.96518,-11.87075 l 7.42915,-2.19202 9.08898,-15.74681 9.089,-15.74683 -1.70399,-0.39463 c -0.937,-0.21782 -12.4807,-2.26127 -25.65248,-4.5419 -13.17176,-2.28063 -24.91235,-4.37074 -26.09021,-4.64469 l -2.1417,-0.49742 -23.08183,8.07231 c -12.69502,4.43975 -23.40015,8.21171 -23.78916,8.3821 -0.38901,0.1704 -5.55339,9.69423 -11.47634,21.16406 -5.92299,11.46983 -12.39909,24.15086 -14.39135,28.18007 -1.99225,4.02921 -3.97311,7.87069 -4.40185,8.53666 l -0.77957,1.2108 1.23149,-0.32134 c 0.67732,-0.17673 8.64228,-2.47867 17.6999,-5.11544 z M 83.164679,107.94575 c 5.095042,-5.61396 9.583087,-10.299424 9.973441,-10.412172 0.390347,-0.112759 10.12242,0.0374 21.62683,0.333606 11.5044,0.296231 21.30325,0.358493 21.7752,0.138339 l 0.85813,-0.40026 7.64963,-17.386357 c 4.2073,-9.562495 7.83173,-18.0625 8.05427,-18.888891 l 0.40457,-1.502562 -9.3097,-10.918134 C 139.07678,42.904365 133.8594,36.603489 132.60296,34.907388 L 130.31849,31.823564 70.300402,84.307219 C 37.290453,113.17322 10.244149,136.94149 10.197505,137.1256 c -0.04665,0.18411 14.267551,-4.00943 31.809311,-9.31897 l 31.894117,-9.6537 z M 579.19795,264.74374 c 7.52944,-0.10909 14.26498,-0.35389 14.96787,-0.54401 l 1.27797,-0.34568 -12.64483,-45.34382 -12.64484,-45.34384 -0.69039,0.37458 c -0.37971,0.206 -10.61136,9.4128 -22.737,20.45956 l -22.0466,20.08502 0.76769,1.30577 c 0.42224,0.71817 6.36869,10.87571 13.21434,22.57231 6.84565,11.6966 13.1627,22.59061 14.03788,24.20892 l 1.59125,2.94237 5.60836,-0.0864 c 3.08461,-0.0476 11.76883,-0.17567 19.2983,-0.28476 z m -173.93272,-53.79205 29.91862,-5.14743 -0.80757,-1.04729 c -0.44418,-0.57601 -7.48429,-7.05535 -15.6447,-14.39852 -8.16042,-7.34318 -15.56195,-14.00754 -16.44786,-14.80968 -0.88591,-0.80214 -1.73808,-1.378 -1.8937,-1.27965 -0.1556,0.0983 -6.09443,9.37013 -13.19731,20.60403 -7.1029,11.23391 -12.97438,20.66219 -13.04774,20.95174 -0.0734,0.28956 0.167,0.46972 0.53414,0.40034 0.36715,-0.0693 14.1309,-2.44247 30.58612,-5.27354 z m -229.5281,-60.44724 c 7.72683,-4.45305 14.23625,-8.34982 14.46537,-8.65953 0.22914,-0.30969 -4.27617,-10.95726 -10.01178,-23.66125 -5.73561,-12.70397 -13.50881,-29.922209 -17.27379,-38.262715 l -6.84543,-15.164577 -0.88788,1.08401 c -0.48833,0.596213 -4.08172,8.493885 -7.98531,17.550432 l -7.09743,16.466423 8.50699,30.479547 8.50699,30.47954 2.28674,-1.10772 c 1.2577,-0.60925 8.60868,-4.75113 16.33553,-9.20416 z m 278.06844,46.77719 c 8.05853,-4.13577 26.62174,-13.70382 41.25156,-21.26233 14.62983,-7.55853 26.4866,-13.90445 26.34836,-14.10208 -0.13822,-0.19762 -14.81838,-6.60631 -32.62258,-14.24151 l -32.37126,-13.88222 -1.13496,0.65558 c -0.62426,0.36054 -11.57852,8.07063 -24.34283,17.13351 -12.76432,9.06288 -24.34345,17.32324 -25.73138,18.35637 l -2.5235,1.87839 1.04301,0.87687 c 0.57368,0.48229 8.62368,7.8326 17.8889,16.33403 9.26523,8.50142 17.00268,15.52818 17.19435,15.61505 0.19164,0.0869 6.94182,-3.22589 15.00033,-7.36166 z m -234.39855,-75.93332 7.01819,-18.68238 -3.75331,-16.601507 -3.75333,-16.601511 -1.04314,-0.178972 c -0.57374,-0.09844 -13.80628,-1.731153 -29.40568,-3.628182 -15.59938,-1.897044 -28.67934,-3.312366 -29.06657,-3.145154 l -0.70405,0.304 9.91384,21.996042 c 5.45261,12.097807 13.38536,29.732244 17.62833,39.187654 l 7.71447,17.1916 9.21653,-0.57957 9.21652,-0.57959 z m 111.52728,46.86143 c 13.76506,0.35432 34.11285,0.90788 45.21729,1.23017 11.10444,0.32227 20.35202,0.51346 20.55018,0.42485 0.19814,-0.0886 -6.82527,-12.25398 -15.60758,-27.03416 -8.78233,-14.78017 -16.55594,-27.90367 -17.27471,-29.16334 l -1.30685,-2.2903 -1.37246,0.78333 c -0.75485,0.43084 -9.93843,6.01318 -20.40799,12.40522 l -19.03555,11.6219 -8.53353,14.78426 c -4.69347,8.13135 -8.6148,15.10487 -8.71408,15.49672 -0.0992,0.39183 0.18814,0.79899 0.63871,0.90479 0.45054,0.10578 12.08152,0.48226 25.84657,0.83656 z m -91.81171,-37.13925 21.0138,-7.33014 3.31243,-12.97342 c 1.82229,-7.13525 4.94164,-20.396479 6.93273,-29.469155 l 3.6202,-16.495764 -1.12532,1.100435 c -0.61893,0.605251 -10.60166,9.351869 -22.18381,19.43695 l -21.05848,18.336484 -6.15936,16.04474 c -3.38764,8.82459 -6.31778,16.67003 -6.51141,17.43431 l -0.35207,1.3896 0.74868,-0.072 c 0.41176,-0.0395 10.20488,-3.37052 21.76248,-7.40209 z m 304.42371,61.67666 c 10.00759,-9.14574 19.69792,-18.0426 21.53405,-19.77082 l 3.33839,-3.1422 -2.15062,-3.21828 c -1.18285,-1.77007 -7.17346,-9.63597 -13.31249,-17.47982 -6.13901,-7.84385 -14.37099,-18.36002 -18.29325,-23.36926 -3.92227,-5.00923 -10.70663,-13.62661 -15.07632,-19.14975 -4.3697,-5.52313 -7.84468,-9.516772 -7.72217,-8.874785 0.1225,0.642008 3.65059,15.017305 7.84018,31.945115 4.18959,16.92782 7.63827,31.95345 7.66372,33.3903 0.0254,1.43685 -0.64387,12.40147 -1.48738,24.36581 -0.84353,11.96433 -1.30778,21.79361 -1.03169,21.84281 0.27606,0.0491 8.68997,-7.39341 18.69758,-16.53912 z m -116.99952,-41.82309 25.3627,-17.83022 -5.69461,-1.82431 c -3.13204,-1.00334 -22.31479,-5.85053 -42.62836,-10.77153 l -36.93377,-8.94725 0.0893,0.51071 c 0.0492,0.28091 7.56341,13.15521 16.69837,28.60958 9.13492,15.45438 16.86424,28.09535 17.17627,28.09106 0.31203,-0.004 11.98053,-8.03142 25.93003,-17.83804 z m -127.63917,-21.11759 21.07541,3.78049 0.62368,-0.3518 c 0.34302,-0.19351 9.50445,-5.76088 20.35873,-12.37197 l 19.73504,-12.02013 -1.77154,-2.45727 c -0.97435,-1.35147 -7.16183,-9.609425 -13.74999,-18.350965 -6.58815,-8.741535 -12.23972,-15.955044 -12.55905,-16.030029 -0.31933,-0.07499 -6.28129,4.294968 -13.24882,9.711004 -6.96753,5.416024 -21.56917,16.771649 -32.44808,25.23469 -10.87892,8.46306 -20.09227,15.79313 -20.47412,16.28909 l -0.69428,0.90172 6.03881,0.94234 c 3.32135,0.51828 15.52274,2.64356 27.11421,4.72283 z m -14.79897,-24.59452 c 9.85026,-7.703065 23.3282,-18.18156 29.95104,-23.28557 6.62281,-5.103999 12.69217,-9.783224 13.48746,-10.398267 l 1.44599,-1.118274 -1.87303,-0.439825 c -1.03014,-0.241902 -11.22268,-1.96393 -22.65004,-3.826722 -11.42739,-1.86281 -21.98987,-3.491717 -23.4722,-3.619816 l -2.69516,-0.232902 -3.14592,12.421349 c -1.72984,6.831839 -4.77099,19.82975 -6.75811,28.884227 l -3.61293,16.4627 0.70631,-0.42075 c 0.38846,-0.23142 8.7656,-6.72326 18.61583,-14.42632 z M 256.45637,76.212103 c 9.92815,-8.616384 18.07934,-15.900779 18.11372,-16.187557 0.0344,-0.286774 -5.77309,-7.745303 -12.90548,-16.574511 -7.13239,-8.829193 -13.36121,-16.243384 -13.84177,-16.475949 l -0.87375,-0.422862 -12.009,20.111522 c -6.60495,11.061326 -12.15609,20.692115 -12.33589,21.40175 -0.17979,0.709637 0.85577,6.619858 2.30124,13.133823 1.44548,6.51398 2.9544,13.388358 3.3532,15.276397 l 0.72506,3.432832 4.71074,-4.014651 c 2.59089,-2.208071 12.83375,-11.064423 22.76193,-19.680794 z m 266.84735,82.709147 c 0.0301,-0.11879 -3.46206,-14.72079 -7.76036,-32.44887 -4.29829,-17.7281 -8.13311,-32.413985 -8.5218,-32.635302 l -0.70673,-0.402395 -23.11133,18.681757 c -12.71126,10.27496 -23.17946,18.95054 -23.2627,19.27907 l -0.15134,0.59734 30.34551,13.18247 c 16.69003,7.25036 30.96844,13.35784 31.72978,13.57221 0.76136,0.21431 1.40887,0.29255 1.43897,0.17372 z m -65.79247,-30.27266 c 1.37949,-1.00473 12.44481,-9.86263 24.58961,-19.68423 l 22.08143,-17.857421 -1.01938,-0.427258 c -0.56066,-0.235061 -20.46865,-2.682317 -44.23994,-5.438514 -23.77128,-2.756194 -60.9139,-7.047204 -82.53911,-9.535577 -21.62523,-2.488365 -39.35865,-4.364424 -39.40763,-4.168997 -0.0489,0.195418 5.06703,7.252382 11.36891,15.682148 6.30186,8.429758 12.50833,16.576959 13.79217,18.104889 l 2.33423,2.77807 35.94598,8.84073 c 19.7703,4.8624 40.13989,9.89647 45.26578,11.18683 l 9.31977,2.34611 z M 188.53095,35.93974 c 17.13392,-11.716196 31.5302,-21.632592 31.99172,-22.036438 l 0.83917,-0.734275 -9.21564,1.886234 c -5.06859,1.037428 -24.67369,4.950255 -43.56687,8.695173 l -34.35124,6.808927 -0.17938,0.707996 c -0.0987,0.389396 4.80821,6.565947 10.90417,13.725661 l 11.08353,13.017657 0.67098,-0.384376 c 0.36906,-0.211413 14.68965,-9.970362 31.82356,-21.686559 z m 2.26952,27.20634 c 15.1439,1.855273 27.82518,3.236754 28.18065,3.069984 0.35547,-0.166783 6.34235,-9.790074 13.30414,-21.385095 6.96181,-11.595016 12.52435,-21.272683 12.36121,-21.505919 -0.16314,-0.233234 -3.47741,-2.663659 -7.36507,-5.400931 -3.88766,-2.737272 -7.37224,-5.115024 -7.74355,-5.283894 l -0.67509,-0.307042 -32.14158,21.813248 c -17.67786,11.997286 -33.08969,22.510447 -34.2485,23.362594 l -2.10693,1.54934 1.4502,0.357256 c 0.79769,0.196116 13.84064,1.875191 28.98452,3.730463 z m 118.23567,0.837667 21.398,3.419593 -11.54989,-26.498099 -11.54987,-26.498085 -4.782,-1.09818 c -2.6301,-0.604032 -10.93149,-2.469635 -18.4475,-4.1460339 L 270.4394,6.1150484 260.23271,14.548797 c -5.61369,4.638576 -10.16818,8.747998 -10.1211,9.132043 0.0472,0.384077 6.31024,8.490675 13.91812,18.014714 l 13.8325,17.316431 4.88797,0.776077 c 2.68839,0.426836 14.51705,2.314879 26.28595,4.195644 z m 69.08868,9.031316 c 20.60983,2.35697 51.54464,5.938607 68.74404,7.959188 17.19938,2.020577 35.9998,4.211032 41.77869,4.867693 l 10.50706,1.193905 -0.48959,-0.595101 C 498.39573,86.113441 492.79866,82.985042 486.22708,79.488753 479.6555,75.992466 457.8379,64.270853 437.74352,53.440736 417.64917,42.610621 391.80998,28.700196 380.32313,22.528694 368.8363,16.357196 358.87415,11.015526 358.18503,10.658324 l -1.25294,-0.649458 -1.42989,3.598467 c -0.78642,1.979157 -5.5729,14.734203 -10.63661,28.34454 -5.06369,13.610343 -9.2996,25.112632 -9.4131,25.560643 l -0.20639,0.814559 2.70315,0.201286 c 1.48675,0.110715 19.56574,2.129722 40.17557,4.486702 z M 337.35593,53.047546 c 1.86177,-5.081897 6.20643,-16.748981 9.65483,-25.926861 3.44838,-9.177867 6.14103,-16.871127 5.98365,-17.09612 -0.15738,-0.2250055 -9.6944,0.642277 -21.19335,1.927277 l -20.90722,2.336377 1.15921,2.771038 c 0.63757,1.524052 5.4872,12.781276 10.77698,25.01604 l 9.61779,22.245034 0.76155,-1.016483 c 0.41883,-0.559072 2.2848,-5.174403 4.14656,-10.256302 z"
       id="path1" />
  </g>
</svg>
