<?xml version="1.0" encoding="UTF-8" standalone="no"?>
<!-- Created with Inkscape (http://www.inkscape.org/) -->

<svg
   version="1.1"
   id="svg1"
   width="700"
   height="700"
   viewBox="0 0 700 700"
   sodipodi:docname="gBrain.svg"
   inkscape:version="1.4.4 (dcaf3e7d9e, 2026-05-05)"
   xmlns:inkscape="http://www.inkscape.org/namespaces/inkscape"
   xmlns:sodipodi="http://sodipodi.sourceforge.net/DTD/sodipodi-0.dtd"
   xmlns="http://www.w3.org/2000/svg"
   xmlns:svg="http://www.w3.org/2000/svg">
  <defs
     id="defs1" />
  <sodipodi:namedview
     id="namedview1"
     pagecolor="#ffffff"
     bordercolor="#000000"
     borderopacity="0.25"
     inkscape:showpageshadow="2"
     inkscape:pageopacity="0.0"
     inkscape:pagecheckerboard="0"
     inkscape:deskcolor="#d1d1d1"
     inkscape:zoom="0.48648533"
     inkscape:cx="541.64017"
     inkscape:cy="438.86215"
     inkscape:window-width="1600"
     inkscape:window-height="831"
     inkscape:window-x="0"
     inkscape:window-y="0"
     inkscape:window-maximized="1"
     inkscape:current-layer="g1" />
  <g
     inkscape:groupmode="layer"
     inkscape:label="Image"
     id="g1">
    <path
       style="fill:none;stroke:#131414;stroke-width:0.860072"
       d="m 554.14285,125.8903 c -1.2489,0.2783 -2.17044,0.85376 -5.10114,0.53178 C 541.33048,125.57487 421.9553,97.941193 411.29843,95.757653 404.70823,94.407351 382.20354,91.963695 378.20334,86.647868 365.53107,69.807571 358.8362,41.07584 353.27043,17.845447 c -0.63865,-2.665602 50.11775,2.153484 51.36342,2.525303 5.69217,1.69903 9.92933,5.641004 14.99172,9.177041 10.29837,7.193362 20.37886,14.383073 30.66199,21.66203 21.31607,15.088737 42.50375,29.464347 63.64547,44.891847 11.19755,8.171052 25.01192,17.320682 36.06843,25.347182 3.72443,2.70379 6.72995,5.57574 10.11374,9.19051 -6.6824,3.90765 -22.66747,14.5404 -33.62301,21.56803 -9.15132,5.87032 -17.79786,12.8876 -27.35807,17.41311 -3.41645,1.6173 -6.43501,3.53836 -9.82147,5.46374 -11.54132,6.56194 -23.29515,13.00048 -35.00065,19.34208 -5.07879,2.75152 -11.12415,6.13683 -16.03969,8.90198 -2.42021,1.36147 -5.12047,2.60785 -7.23456,4.30235 -1.94115,1.55595 -2.41627,2.55433 -4.02857,4.59553 -2.86075,3.62167 -6.66989,8.41817 -9.7279,12.04499 -7.19449,8.53262 -19.57494,22.41606 -22.82611,30.65174 5.31652,0.57621 12.22448,0.0648 18.66597,-0.38865 11.62682,-0.81853 23.29287,-1.27054 34.91188,-2.08851 7.01562,-0.49385 13.51244,-0.60041 19.39663,-2.29091 -4.95866,-8.28712 -15.99878,-19.76429 -23.30516,-28.129 -2.50496,-2.86773 -6.50565,-7.44741 -8.73823,-10.17169 -2.039,-2.48802 -2.29406,-3.27552 -3.11387,-4.64204 M 404.44848,20.853337 c -15.25366,43.906353 -15.362,44.571676 -26.46,65.564962 M 258.4254,4.1358796 c 11.96162,9.5363694 12.09269,9.7097224 24.15116,19.3890954 7.32818,-4.700743 13.39154,-17.7984986 28.2305,-17.4409225 14.20081,0.342198 28.76833,7.7902955 42.30852,12.3764775 M 258.68191,4.3944566 C 196.10992,41.03385 195.75428,41.003139 177.3805,53.824167 167.00176,38.287646 161.3082,27.529478 154.76981,16.275425 155.0345,16.199383 256.40435,4.341227 259.0659,4.2194908 m 51.21907,63.8803552 c -22.89736,16.315335 -39.82715,27.786494 -58.35822,40.294864 -0.69502,-11.099863 -2.35377,-31.494034 -3.50559,-39.294034 7.57632,-8.854523 34.5497,-44.945779 35.01127,-45.266706 9.81981,14.718826 23.66435,41.41447 26.72264,44.114986 2.46429,2.175995 63.34501,18.150527 67.27935,18.334869 m 183.53667,44.664535 c 3.06512,4.39108 4.91389,6.11452 7.65896,10.50695 5.56108,8.89823 11.81555,19.46953 17.27707,28.59952 11.02788,18.4354 25.57235,37.19614 32.76559,56.67136 1.65463,4.47994 2.44949,10.18385 3.2032,15.23174 2.50029,16.74629 5.00992,33.52133 7.50686,50.24568 1.78546,11.95877 3.70998,24.62546 5.45496,36.54069 0.36962,2.52341 0.73223,4.86123 0.87255,7.22928 0.14484,2.44204 -0.14469,3.78191 -0.75709,5.77649 -0.75153,2.44549 -1.50738,6.05289 -2.34778,8.65947 -4.84386,15.02337 -7.8251,30.38212 -12.59989,45.57938 -2.29409,7.30175 -2.00393,13.11296 -6.44397,16.68774 -4.90302,-4.67887 -16.89994,-10.69148 -26.02801,-15.96576 -23.24152,-13.42913 -46.33633,-26.74902 -69.50168,-39.79436 -8.48464,-4.77807 -21.76357,-16.43453 -31.53521,-14.31418 12.84725,17.17552 28.1691,33.32602 42.31428,49.68199 4.38856,5.07446 15.47127,14.48987 16.25322,20.81682 0.48648,3.93704 -4.34095,8.29536 -6.41611,11.42205 -5.75722,8.67423 -17.18589,20.19872 -17.7735,29.01876 6.1126,0.54917 14.94916,7.4943 22.16581,4.41739 17.65992,-7.52969 34.76471,-21.48811 50.68599,-31.70108 6.89141,-4.4206 15.42623,-9.5366 19.54368,-12.82261 m -49.47644,-277.147 c -1.09744,3.44146 -0.51167,10.60519 0.65424,19.2504 2.13474,15.82936 3.64051,31.95677 5.5355,47.80542 0.44926,3.7577 0.14504,5.7049 0.1402,8.69342 -0.006,3.33502 0.44721,4.55841 -0.22739,7.69645 -1.6837,7.8328 -4.1532,21.48447 -5.71194,29.91624 -0.62166,3.36256 -1.58595,8.1761 -2.07226,11.35045 -0.40498,2.64342 -0.19515,4.30002 0.16046,6.10923 10.02621,-4.54242 30.51601,-20.72538 41.64136,-29.04453 4.64927,-3.47655 9.90523,-6.90606 13.27459,-9.90024 M 378.20518,86.70617 c 13.35349,26.2282 21.30423,46.36312 21.96229,46.78284 2.75699,1.75846 5.00838,1.71211 8.59115,3.00561 20.03621,7.23369 41.11575,15.70836 61.33143,23.00685 8.66068,3.12673 19.53651,7.91757 25.38469,10.02894 M 377.97549,86.681411 c -57.73717,29.223169 -57.61388,29.461989 -90.77847,49.139749 1.16389,1.53975 2.05591,3.16931 5.16052,4.32926 3.27744,1.22456 10.99585,3.43046 14.88061,4.38802 12.679,3.12515 30.79144,8.77059 41.01751,12.46252 -4.51836,5.70062 -17.4208,22.2733 -21.70406,29.32826 -1.27811,2.10505 -2.05608,3.57885 -3.63664,5.60132 -2.16869,2.77493 -2.89281,4.37677 -4.82898,7.76368 -8.22308,14.38501 -16.55895,29.26834 -25.01497,43.69 -1.36136,2.3218 -3.79689,6.46404 -4.70179,8.67388 -0.69278,1.69169 -1.38462,3.07636 -1.57658,5.48079 -0.18137,2.27154 0.27626,4.00742 1.11986,6.45429 2.45313,7.11507 6.11519,15.11481 8.94546,22.24378 1.40113,3.52902 3.68059,10.10407 5.77733,12.79995 2.9384,3.77798 7.02213,3.921 12.22542,5.79954 11.06861,3.99612 24.67785,9.77376 33.94344,13.11892 -3.21431,5.66872 -10.71489,14.98555 -15.34869,21.25138 -1.87755,2.53884 -3.52005,6.12694 -6.78708,7.37021 -9.87973,3.75966 -25.93218,2.26917 -36.80248,3.03448 -3.13116,0.22043 -10.1033,-0.25853 -11.2929,2.71446 -1.02131,2.55097 1.03104,5.99229 2.2032,8.48323 3.40819,7.24286 6.55737,14.59862 10.09558,21.79474 3.94922,8.0321 8.2846,18.11719 12.1375,25.94237 1.56979,3.18836 3.03538,5.59658 5.86996,8.27726 3.17807,3.00554 5.03225,2.62932 8.81398,4.96268 5.05425,3.11859 10.05789,6.18445 14.95126,9.28244 6.32994,4.00761 14.88509,8.97993 21.35212,12.91585 7.1556,4.35496 16.75926,9.97941 23.71595,14.37346 2.93965,1.85676 7.5953,5.83904 11.17389,4.88374 2.33468,-0.62317 4.54254,-2.69073 6.43233,-4.0365 5.38423,-3.83442 18.34381,-9.83737 20.11281,-16.07424 1.9548,-6.89197 -0.73804,-17.31029 -1.16742,-24.62137 -1.09151,-18.5841 -2.30047,-37.05177 -3.37227,-55.66723 -0.76671,-13.31627 -1.24758,-33.2147 -3.1926,-40.90959 -6.33783,3.21836 -14.07846,11.08595 -22.23927,18.76365 -18.20698,17.12915 -36.77177,33.95209 -55.09138,50.98139 -6.2884,5.84563 -18.44557,15.69889 -22.01428,21.43774 m 11.61126,-220.52121 c -6.37438,0.59112 -22.59883,3.53506 -32.26585,5.34857 -21.59435,4.05098 -43.32137,7.67488 -64.9204,11.70912 -7.71884,1.44173 -20.01078,3.48285 -27.21195,4.87713 -3.36252,0.65101 -5.4888,1.03397 -8.20462,1.0625 2.62501,-6.64972 10.4088,-17.58854 17.1811,-27.50406 5.14521,-7.53325 10.05707,-15.44131 15.29977,-22.9976 4.54535,-6.55121 6.80367,-9.33524 8.89121,-14.07565 -3.3972,-0.56493 -6.29876,-1.03289 -11.15259,-1.4115 -3.92917,-0.30647 -8.97665,0.62791 -11.13582,-2.67863 -3.21295,-4.92019 -23.8938,-74.506355 -29.35709,-92.340811 -3.95377,6.458445 -18.62469,28.351209 -25.21818,39.596378 -2.00861,3.425631 3.64401,-2.262582 -3e-4,-0.744734 -25.08696,5.070431 -49.2082,12.671007 -74.324053,17.998847 -52.301585,6.67682 -52.080062,6.60801 -74.2822483,10.03556 C 36.778378,97.630106 142.79085,24.067359 154.77024,16.275567 M 310.25059,67.86037 c -1.5558,4.050543 -3.79312,12.742667 -6.10641,18.765212 -3.70174,9.637304 -6.59345,19.546438 -10.2235,29.151698 -1.41748,3.75078 -3.61814,9.37346 -4.95457,12.90404 -1.21398,3.2059 -1.40173,4.7176 -1.47713,6.38095 M 179.67576,52.924267 c 12.51386,2.930241 51.44047,10.928776 69.24298,15.974319 M 500.33721,169.55735 c 3.90736,5.22757 11.56784,8.53881 18.55843,12.57743 10.85856,6.27334 21.73313,12.55674 32.70023,18.89277 3.25067,1.87798 9.94751,5.7325 12.77505,7.27373 2.49482,1.35985 3.026,1.68352 4.03213,2.25133 M 398.19657,133.54568 c -12.13803,5.3324 -36.1012,15.31548 -48.79349,23.00525 m 51.92546,-21.01024 c -0.26432,4.35596 3.52061,11.1932 6.37384,17.85823 4.68923,10.95365 9.50295,21.86711 14.25133,32.80218 1.84731,4.25414 4.46263,10.26156 6.14332,14.31387 1.24454,3.00071 1.79241,4.39676 2.46404,6.0793 m 138.97064,6.09437 c -6.52158,2.5578 -13.9813,5.48358 -24.09583,9.45058 -17.03687,6.68198 -34.31626,12.81445 -51.34234,19.49219 -6.00526,2.35532 -20.43573,5.51625 -23.81806,10.41514 -1.20673,1.74773 -0.5795,3.81968 -0.40509,5.90372 0.31851,3.80529 0.98566,7.80485 1.34447,11.72107 1.27116,13.87244 3.16573,27.73578 5.13417,41.61056 0.59401,4.18686 1.33264,12.64621 2.07225,16.30459 0.96624,4.77923 2.13935,5.2229 3.83289,8.29867 M 251.92718,108.39485 c -6.70775,14.45241 -13.59476,27.35352 -22.04489,42.16946 m 57.02317,-13.98413 c -1.84895,0.67938 -3.43984,1.3229 -6.6957,2.19683 -3.34585,0.89809 -8.19303,1.93814 -11.76798,2.73965 -10.40346,2.3325 -28.24564,7.85298 -35.97312,7.38857 m -80.2163,-54.875385 c 3.07323,22.873635 7.77199,48.692525 11.71892,73.359775 10.27364,-4.0332 32.79506,-13.26986 42.18178,-18.47805 m 223.84368,56.61468 c -1.37226,0.25896 -2.45553,0.75109 -6.0361,0.47967 -5.76299,-0.43686 -17.7472,-2.3468 -24.07748,-3.27167 -16.50568,-2.41135 -33.57226,-4.71097 -49.93938,-6.99542 -9.74865,-1.36064 -18.94868,-2.04731 -25.68003,-4.18562 m 236.86079,76.00705 c -0.82862,4.53109 2.38199,9.17949 4.69077,14.65775 4.7576,11.28894 9.70588,22.53204 14.58254,33.78604 1.83341,4.23088 3.42104,12.20469 7.07257,15.33429 3.14027,2.69138 11.58319,2.03069 15.50107,2.34396 11.44229,0.91504 24.36372,3.35179 32.31394,2.13789 m -75.32708,-65.22384 c -5.85631,3.50359 -12.44991,9.20753 -18.33545,14.12309 -12.10951,10.11384 -24.45885,20.25555 -37.11067,29.81598 -4.52028,3.41574 -13.88323,11.18636 -17.48225,14.43113 -3.21223,2.89614 -3.64248,4.45397 -4.48424,6.15957 M 78.055424,111.30128 c 11.415822,33.73877 26.412456,73.72607 31.263696,86.47821 0.81361,2.13862 1.37907,4.43751 3.66012,5.22065 1.91979,0.65915 3.46001,-1.47028 4.42673,-2.30976 1.955,-1.69765 4.69741,-3.65236 6.94544,-5.25497 12.71411,-9.06393 26.92767,-17.33682 38.47246,-27.59577 m 305.17053,83.38337 0.85593,0.30886 m -75.54211,3.84109 c -3.41218,7.72267 -3.64624,21.9328 -4.88651,31.9428 -0.51136,4.1274 -2.76846,10.65841 -1.32234,14.63888 1.5937,4.38636 10.00968,8.99081 13.831,12.2284 2.85464,2.41862 3.87348,3.92335 6.62577,5.58516 1.8274,1.10344 9.45069,2.2034 13.46261,3.00916 13.04453,2.61988 26.61858,5.56927 39.70018,8.2804 3.36989,0.69841 10.83798,2.36302 13.61312,2.55466 2.96977,0.20467 3.82117,-0.24819 5.08179,-0.48143 M 189.93043,216.51864 c 4.07762,4.15846 12.54149,6.39243 23.91963,11.3059 20.52549,8.86371 41.31607,17.77079 62.19891,25.82288 4.57321,1.76341 7.13863,2.41997 10.56227,2.94835 3.34102,0.51561 5.48532,0.44655 9.59761,0.38535 19.80705,-0.29471 39.97535,-0.46626 59.74263,-0.76627 10.26399,-0.15578 26.70642,-1.63173 35.91773,0.36729 m 194.53756,74.55556 c -7.67869,2.19573 -16.34412,1.52668 -25.01914,1.70546 -15.4611,0.31858 -30.77512,0.83804 -46.22461,1.09397 -6.55706,0.10853 -18.61643,0.30048 -24.56298,0.52167 -4.88703,0.18185 -5.86443,0.68657 -7.19842,0.97633 M 3.6678117,120.87567 c -0.946882,68.20353 -0.446639,68.0834 1.211055,99.70468 0.623979,7.16346 -0.560784,17.32401 3.011747,23.88806 5.0816253,9.33686 18.4747293,18.4464 26.8128363,26.03897 3.393961,3.09046 6.681022,7.57523 10.919795,9.49021 3.033317,1.37032 4.615133,-0.94056 6.112584,-2.7441 2.881253,-3.47026 6.43483,-7.86189 9.24005,-11.35621 7.511886,-9.35723 15.186371,-18.79343 22.958517,-28.01109 3.90801,-4.63485 7.77852,-9.43303 11.57076,-13.97251 3.99758,-4.78528 10.427724,-9.63396 8.104614,-16.08819 l -65.402945,25.65155 c -9.166727,3.59529 -21.092154,8.5528 -29.5413793,10.94168 M 187.3628,215.59163 c -1.11587,1.2334 -1.93265,2.3658 -2.91563,4.99867 -1.63549,4.38046 -6.25627,18.68551 -8.15981,23.84545 -1.35413,3.6708 -1.90894,7.35782 -3.22905,10.93417 -0.83657,2.26645 -1.94897,4.25521 -0.28621,6.62616 3.77119,5.37762 11.16018,10.55742 16.31152,15.08333 3.22561,2.83397 6.34002,7.0396 10.16482,9.05758 2.38034,1.25593 4.64472,1.17966 7.22064,1.49917 7.34368,0.91085 15.71244,2.01724 23.21902,2.98102 11.1938,1.43715 22.14766,2.84339 33.4354,4.2927 5.47062,0.70225 11.51837,1.20619 16.77643,1.99346 3.90604,0.58483 10.24059,1.39501 13.86639,1.95789 3.41155,0.52956 5.05642,1.08011 8.54783,0.58121 M 115.35677,205.15223 c 5.54251,0.92225 9.1208,1.51358 15.61414,2.48217 13.17104,1.96466 26.29129,4.11255 39.47037,6.34148 2.88065,0.48717 6.50334,0.97414 9.1948,1.42229 3.56505,0.59368 4.32888,0.83304 5.43189,1.09348 m 298.04211,119.70247 6.2639,3.99002 m -8.26719,-3.84901 c -0.54868,1.03925 -1.23061,1.65281 -1.79427,5.40352 -0.34442,2.29225 -0.48711,5.84229 -0.57327,8.43452 -0.22419,6.74735 -0.64231,12.8563 -0.73556,19.61293 -0.29312,21.23494 -1.64503,42.65192 -2.67347,63.85592 -0.52945,10.91612 -1.85981,23.47251 -0.58836,30.90173 6.67907,-0.5217 36.1989,-9.09812 45.56774,-12.06992 M 111.93326,203.91628 c -3.17092,3.57941 -3.78175,4.21084 -5.48308,6.66327 m 278.5071,91.90694 c -6.84147,4.14085 -28.34219,12.40539 -36.15313,15.46888 m 137.4191,22.81987 -0.2914,0.75908 m -382.32194,-133.70877 4.0066,-0.28206 m 186.97615,91.70414 3.98783,2.30399 m -2.58639,1.65908 c -16.85553,8.75798 -34.51688,17.43771 -51.09127,26.49711 -2.61055,1.42692 -4.33939,3.0031 -6.9193,4.08868 -2.24413,0.94433 -4.64268,1.14902 -6.99247,1.63623 -4.67837,0.97002 -10.09368,2.15232 -14.85248,3.14656 -6.12648,1.28 -12.87984,2.81239 -19.01227,3.82746 -2.32428,0.38475 -4.62172,0.52595 -6.91121,0.23242 -2.26469,-0.2906 -3.6599,-0.5171 -5.40024,-1.16408 -2.36633,-0.87963 -5.62308,-3.02137 -8.0969,-4.29235 -12.70077,-6.52521 -25.23532,-13.65465 -37.9275,-20.50719 -3.08237,-1.6642 -6.00781,-3.6085 -8.7998,-4.99964 -2.29292,-1.14248 -4.21928,-1.65074 -6.80653,-2.57736 -16.92379,-6.0617 -34.673754,-11.65339 -51.64423,-17.78027 -8.543134,-3.08433 -17.958003,-4.6399 -23.381397,-10.16999 M 169.87008,261.13312 c -4.00104,5.61915 -10.058,12.80508 -15.03142,18.77308 -5.24428,6.29305 -10.49386,12.96877 -15.64127,19.41718 -3.25867,4.08231 -6.25315,7.71684 -7.72765,11.03858 m 68.24337,-22.8975 c -1.21849,3.69327 -2.38485,10.39407 -3.26328,16.10747 -1.1512,7.48722 -2.72221,15.24201 -3.88393,22.7977 -0.53603,3.48589 -1.15363,7.11593 -1.74744,10.60076 -0.4781,2.80596 -0.82804,3.5461 -1.22428,4.74768 m 48.68092,-7.48882 c 5.29712,5.4013 30.49814,13.60362 39.35148,16.79996 m 196.55096,112.44655 c -1.88913,0.17947 -3.50586,0.3336 -6.57031,-0.65886 -3.92477,-1.27111 -9.62428,-3.45929 -13.69791,-4.92999 -10.7853,-3.89385 -28.08236,-10.13862 -37.65849,-13.59589 M 311.44879,420.2827 c 0.92234,5.03074 11.41616,17.91318 16.6577,25.13756 14.70732,20.27089 29.13193,40.69624 43.823,60.9775 5.91229,8.16197 12.0755,18.14294 17.11381,21.4129 2.20847,-8.47872 0.18925,-28.18783 -0.55569,-41.68614 -0.36153,-6.55069 -0.99134,-15.12713 0.15011,-20.68857"
       id="path1"
       sodipodi:nodetypes="cssssssssscsssssssscsscsscccccscccccccccsccsssssssssscsscssccssccssscsscsccssscccsccsscssssssscssscssssssssscssscssccssscsscsccssscccsscccccssscccccssccsssscssccccsscccccscsccssssccsssccssscccccscssssccccssssccsssccssssssssccccssscsssscscccsssccccsssscccccccccccccssssscscsscsccssccsssccccssccsscsc" />
  </g>
</svg>
