<?xml version="1.0" encoding="UTF-8" standalone="no"?>
<!-- Created with Inkscape (http://www.inkscape.org/) -->

<svg
   version="1.1"
   id="svg1"
   width="1024"
   height="1024"
   viewBox="0 0 1024 1024"
   sodipodi:docname="gBrain.svg"
   inkscape:version="1.4.4 (dcaf3e7d9e, 2026-05-05)"
   xmlns:inkscape="http://www.inkscape.org/namespaces/inkscape"
   xmlns:sodipodi="http://sodipodi.sourceforge.net/DTD/sodipodi-0.dtd"
   xmlns="http://www.w3.org/2000/svg"
   xmlns:svg="http://www.w3.org/2000/svg">
  <defs
     id="defs1" />
  <sodipodi:namedview
     id="namedview1"
     pagecolor="#ffffff"
     bordercolor="#000000"
     borderopacity="0.25"
     inkscape:showpageshadow="2"
     inkscape:pageopacity="0.0"
     inkscape:pagecheckerboard="0"
     inkscape:deskcolor="#d1d1d1"
     inkscape:zoom="0.60839844"
     inkscape:cx="512"
     inkscape:cy="508.71268"
     inkscape:window-width="1600"
     inkscape:window-height="831"
     inkscape:window-x="0"
     inkscape:window-y="0"
     inkscape:window-maximized="1"
     inkscape:current-layer="g1" />
  <g
     inkscape:groupmode="layer"
     inkscape:label="Image"
     id="g1">
    <path
       style="fill:none;stroke:#131414;stroke-width:1.25846"
       d="m 805.34423,131.21 c -1.7525,0.64281 -2.97581,1.65621 -7.27223,1.74448 -11.3047,0.2322 -40.2586,-3.7902 -53.25434,-5.32828 -51.55248,-6.10134 -102.84832,-10.87292 -154.52719,-15.48569 -11.36864,-1.01474 -36.89143,-3.87215 -46.63136,-4.63559 -4.60997,-0.3613 -7.06365,0.0689 -9.60029,0.20631 -1.59531,-4.55148 -3.27979,-7.58811 -5.59903,-12.246155 -6.64315,-13.341953 -17.00059,-38.169153 -23.3616,-52.866869 -2.29593,-5.305029 -12.94823,-22.330728 -8.73901,-27.133697 2.64389,-3.016846 8.7463,-2.741725 12.8377,-3.258153 13.64849,-1.72279 27.30346,-3.6620364 40.84507,-5.3661534 5.71961,-0.7197849 13.89024,-1.7787035 19.31214,-0.8954356 8.54733,1.3923946 15.41492,6.32836 23.39862,10.516157 16.24115,8.519248 32.16672,17.074605 48.40201,25.721423 33.6544,17.92423 66.98869,34.834178 100.455,53.284979 17.72519,9.772314 39.41703,20.472404 56.9111,30.060994 5.89295,3.23 10.77861,6.84162 16.35111,11.46327 -8.92066,6.96219 -30.01745,25.48848 -44.52535,37.80751 -12.11865,10.29033 -23.29135,22.15525 -36.25467,30.56456 -4.63259,3.00524 -8.6328,6.37727 -13.16391,9.82555 -15.44237,11.75211 -31.21517,23.36489 -46.93639,34.8273 -6.82114,4.97333 -14.91965,11.0536 -21.50227,16.01575 -3.24101,2.4432 -6.90848,4.77201 -9.64422,7.64207 -2.51195,2.63539 -3.01026,4.1799 -4.95538,7.45952 -3.45128,5.81901 -8.05157,13.52954 -11.78699,19.39355 -8.78819,13.79599 -24.06199,36.37164 -27.20702,48.98533 7.79256,-0.17159 17.67998,-2.22994 26.90416,-4.11518 16.64955,-3.40292 33.42494,-6.27944 50.0633,-9.68005 10.04634,-2.05325 19.41595,-3.44374 27.60128,-7.02482 -8.73015,-11.12762 -26.85156,-25.74533 -38.98947,-36.53958 -4.1614,-3.70065 -10.80755,-9.61041 -14.54824,-13.15392 -3.41632,-3.23618 -3.93353,-4.33471 -5.37621,-6.16921 M 569.17724,6.6829163 c -2.57056,6.5430997 -5.42863,15.1965217 -8.92896,24.9182767 -5.28178,14.668952 -11.36776,29.262481 -15.81044,44.177343 -1.6531,5.549766 -4.85817,14.323832 -6.97197,19.237116 -1.4886,3.459719 -2.8905,5.413208 -4.88496,7.477028 m -176.9665,-86.941032 -6.75453,-0.275675 c 4.05974,2.899741 5.27479,1.267676 10.07948,-0.738686 3.27382,-1.367116 5.65363,-1.59458 9.16119,0.141562 9.63196,4.767617 20.78027,13.966505 25.44206,19.067859 9.70437,-8.240146 22.43108,-27.1833911 37.51033,-30.7709402 6.37378,-1.5163922 14.35968,1.9287675 20.88936,3.3772478 14.78075,3.278812 30.62971,5.5719034 43.02221,8.3209264 m -143.33146,6.107929 -66.15104,47.68248 -28.60988,20.552457 -9.65045,8.863383 c -1.49202,-2.105673 -2.70035,-3.956687 -5.15812,-7.079285 -2.54629,-3.235033 -6.65376,-7.713285 -9.56139,-11.193956 -8.35937,-10.006843 -19.89795,-22.134468 -25.04347,-32.118536 10.87298,-4.756906 28.67721,-7.700427 42.08134,-10.526156 32.3139,-6.812055 67.11952,-15.931418 99.31984,-21.686285 m 93.13894,78.127023 -14.77414,13.840194 -39.97826,36.37086 -21.98901,19.57579 c -5.56531,-10.6754 -8.31024,-28.71379 -11.07369,-41.58228 -1.05681,-4.92128 -2.51142,-10.11498 -1.40642,-14.98417 1.17069,-5.15938 4.16766,-9.659989 6.80033,-14.386344 5.5561,-9.974969 11.74393,-20.491146 17.47001,-30.359697 3.35436,-5.7811 8.53097,-15.053406 11.81095,-20.609061 2.0374,-3.451009 3.95193,-5.378543 5.9793,-7.234253 8.89,10.253157 25.69674,31.957376 36.82991,45.553253 3.41246,4.167337 6.55347,9.757763 10.97275,12.762682 5.67341,3.857626 17.86362,3.097997 25.80913,4.523391 14.36682,2.57729 29.02831,5.162919 43.42935,6.621539 3.39393,0.34379 7.43838,0.94969 10.51931,1.64289 4.67788,1.05252 7.0834,1.42356 10.64336,1.12514 m 283.12552,31.01599 c 5.25841,5.81294 8.25557,7.97167 13.05165,13.84744 9.71612,11.90318 20.75003,26.1114 30.36599,38.37108 19.41653,24.75492 43.97688,49.31508 58.04747,76.31364 3.23661,6.21056 5.46156,14.36736 7.50325,21.57645 6.77312,23.91612 13.56515,47.87231 20.32928,71.7571 4.83673,17.07883 10.00801,35.16235 14.77801,52.18547 1.01029,3.60514 1.97544,6.9413 2.62502,10.36377 0.67006,3.52936 0.50441,5.53597 -0.005,8.55759 -0.62478,3.70483 -1.0366,9.10284 -1.75943,13.05919 -4.16627,22.80301 -5.57728,45.74037 -9.61093,68.78353 -1.93797,11.07141 -0.42222,19.48046 -6.16486,25.53145 -7.96899,-5.88267 -26.44223,-12.35915 -40.62993,-18.30572 -36.12408,-15.14086 -72.01551,-30.1505 -107.95711,-44.74684 -13.16414,-5.34616 -34.55507,-19.79932 -48.27775,-14.85301 21.80832,22.57393 46.99972,43.18438 70.52929,64.31783 7.30007,6.55668 25.09405,18.16328 27.41787,27.23 1.4459,5.64193 -4.7088,12.90784 -7.11807,17.85652 -6.68421,13.72896 -21.0275,32.68777 -20.21269,45.64616 8.93801,-0.36236 23.01961,8.07328 32.86915,2.2195 24.10286,-14.32504 46.19051,-37.90819 67.2743,-55.81094 9.12597,-7.74906 20.49591,-16.82347 25.8268,-22.39253 M 821.25343,144.52059 c -0.93683,5.22127 1.26135,15.54408 4.5775,27.91443 6.07178,22.65007 11.29079,45.85383 17.01971,68.57759 1.35825,5.38778 1.28596,8.28179 1.8428,12.63559 0.62125,4.85861 1.50637,6.55443 1.12345,11.25335 -0.95561,11.72886 -1.94908,32.08249 -2.61108,44.66 -0.26407,5.01588 -0.74958,12.2103 -0.85353,16.92632 -0.0866,3.92721 0.52923,6.30021 1.38453,8.86777 13.63364,-8.52254 40.19386,-35.98942 54.70351,-50.22188 6.06356,-5.94771 13.01285,-11.94225 17.3176,-16.94401 M 537.66712,109.73436 c 3.18439,11.01701 26.45019,38.19268 35.79773,49.86127 3.30314,4.12349 6.27969,9.83672 10.77596,11.95869 4.31638,2.03703 7.56152,1.54145 12.98366,2.74425 30.32263,6.72646 62.38732,15.06206 92.98157,21.84877 13.107,2.90747 29.72946,7.81756 38.58005,9.78089 M 528.32203,108.88402 c -5.26509,6.65411 -16.9813,15.12618 -24.80305,21.39694 -18.19175,14.58451 -36.16553,29.42747 -54.1362,44.23431 -11.77909,9.70535 -19.68085,16.8112 -27.97556,21.91585 1.97266,2.0214 3.56932,4.22529 8.27518,5.32449 4.96785,1.16045 16.53928,2.90584 22.33449,3.56192 18.91429,2.14113 46.15689,6.92003 61.63295,10.35308 -5.45476,9.16224 -20.97561,35.75412 -25.83507,46.84429 -1.45006,3.3091 -2.29638,5.60365 -4.19915,8.84997 -2.61081,4.45412 -3.35516,6.92494 -5.51444,12.22622 -9.17063,22.51574 -18.41026,45.77874 -27.91063,68.39216 -1.5295,3.64061 -4.26799,10.137 -5.1589,13.52777 -0.68209,2.59571 -1.42075,4.74407 -1.24453,8.2827 0.16644,3.34305 1.15534,5.78441 2.83622,9.18794 4.88784,9.8969 11.68983,20.85248 17.12537,30.6979 2.69084,4.87373 7.2258,14.01709 10.76479,17.54505 4.95959,4.94405 10.8887,4.37588 18.76332,6.1227 16.75113,3.7159 37.51031,9.5436 51.53279,12.65419 -3.57605,8.86781 -12.65868,23.86422 -18.17364,33.87167 -2.23457,4.05489 -3.93149,9.59337 -8.41868,12.02541 -13.56961,7.35458 -37.05107,8.23581 -52.61727,11.41738 -4.4838,0.91641 -14.65083,1.54445 -15.80923,6.10089 -0.99478,3.90976 2.62071,8.53192 4.78475,11.93719 6.29229,9.90143 12.23153,20.01653 18.7029,29.82517 7.22312,10.94811 15.3917,24.81304 22.43656,35.47809 2.87033,4.34545 5.44287,7.57444 10.04538,10.93997 5.16024,3.77341 7.76906,2.87288 13.67495,5.55244 7.89317,3.58131 15.70325,7.09545 23.36001,10.67737 9.90464,4.63364 23.20731,10.24932 33.29654,14.75248 11.16347,4.9826 26.10457,11.34876 36.98793,16.42611 4.59893,2.14549 12.07897,7.06058 17.07078,4.98875 3.25669,-1.35159 6.05757,-4.78286 8.53494,-7.10233 7.05827,-6.6087 24.65589,-17.8163 26.03586,-27.23685 1.52494,-10.41004 -4.33257,-25.07264 -6.3325,-35.63983 -5.08379,-26.86078 -10.31533,-53.52966 -15.37653,-80.43988 -3.62047,-19.24979 -8.06967,-48.14104 -12.33256,-58.97907 -8.55272,5.89271 -18.2557,18.82389 -28.60179,31.55838 -23.0824,28.41098 -46.73969,56.44399 -70.0037,84.73096 -7.9856,9.71 -23.69707,26.37313 -27.77211,35.41049 M 479.47825,272.89244 c -9.10122,2.07301 -31.99462,9.44584 -45.62399,13.92533 -30.44552,10.00628 -61.16336,19.41573 -91.61882,29.39853 -10.88383,3.56756 -28.264,8.87769 -38.40863,12.27772 -4.73695,1.58755 -7.73776,2.54963 -11.65748,3.10758 2.53927,-10.18465 11.72519,-27.59738 19.64229,-43.32732 6.01497,-11.95072 11.62196,-24.40299 17.77348,-36.4058 5.33328,-10.40628 8.07191,-14.89069 10.19462,-22.19217 -5.01648,-0.17691 -9.29833,-0.30681 -16.38488,0.0646 -5.73657,0.3007 -12.85528,2.62138 -16.59973,-1.78418 -5.99362,-7.05169 -8.75924,-18.49783 -12.61312,-26.73555 -10.13077,-21.65481 -19.4625,-43.59561 -29.58824,-65.25225 -6.8614,-14.675 -12.42174,-28.18153 -17.64958,-36.927599 -7.32017,9.217229 -11.68349,24.594249 -19.0913,42.226869 -2.25667,5.37145 -5.04562,16.25305 -10.02624,19.15676 -3.556,2.07319 -7.33694,1.49191 -11.86891,1.50785 -12.6405,0.0444 -25.31432,-0.23251 -38.1461,-0.20512 -6.09856,0.0131 -13.34481,-1.03169 -19.17389,0.91575 -14.43427,4.82234 -19.77168,25.29115 -31.93066,32.98037 -6.24937,3.95206 -15.75663,5.59095 -23.043439,7.98584 -18.207148,5.98397 -36.564182,11.62047 -54.715591,17.71061 -12.795832,4.29327 -22.779055,8.27768 -30.6095008,8.19341 C 15.607131,216.42915 37.945465,199.52412 53.372174,185.70548 89.954014,152.93701 125.60635,119.31137 161.91026,86.291645 174.57524,74.772353 192.5235,53.514457 207.45935,47.488538 m 234.4446,52.006803 c -1.48434,6.195559 -3.07796,12.846699 -5.28504,22.058569 -3.53179,14.74088 -5.84157,29.72367 -9.27578,44.40425 -1.34099,5.73265 -3.46074,14.34068 -4.72614,19.73719 -1.14968,4.90031 -1.13582,7.13785 -0.93098,9.57491 M 250.36919,96.133044 c 2.15785,0.477406 4.0543,1.140467 9.11613,1.814677 6.0193,0.80177 16.14495,1.77912 22.6051,2.432329 18.21657,1.84197 55.75966,5.14105 69.22304,7.1413 m 384.50532,97.52157 c 6.6335,6.87119 18.32975,10.23757 29.19505,14.79077 16.87721,7.07268 33.77945,14.157 50.82536,21.30037 5.05243,2.11726 15.45844,6.45816 19.83582,8.16539 3.86226,1.50631 4.69102,1.87674 6.25229,2.51246 M 581.40301,172.01159 c -16.53676,10.0747 -49.28668,29.1717 -66.17974,42.78537 m 71.08269,-40.47508 c 0.43981,6.39485 7.20006,15.63385 12.58125,24.79917 8.84386,15.06273 17.86004,30.04326 26.78588,45.0677 3.47248,5.84504 8.38576,14.09777 11.57936,19.68052 2.36485,4.13399 3.42007,6.06321 4.7082,8.38618 m 202.00087,-17.54693 c -8.94291,4.9655 -19.17226,10.64538 -33.04211,18.34659 -23.36232,12.97187 -47.17882,25.18947 -70.52634,38.15312 -8.23489,4.57241 -28.49455,11.9202 -32.45868,19.69869 -1.41432,2.77506 -0.11686,5.67367 0.52838,8.67598 1.17827,5.48197 2.89707,11.18059 4.15453,16.81647 4.45447,19.96395 9.80823,39.79612 15.27091,59.63088 1.64844,5.98536 4.31197,18.16623 6.07114,23.35414 2.29817,6.77739 4.07735,7.20056 7.10528,11.3585 M 365.25806,163.18997 c -2.19538,5.58783 -3.41405,9.24942 -6.39416,16.92182 -4.4512,11.45986 -9.70028,24.4101 -13.10375,36.219 -1.59143,5.52172 -1.12188,7.14528 -4.40701,12.47189 m 79.77592,-31.21059 c -2.54409,1.34109 -4.72194,2.58089 -9.26268,4.47286 -4.66624,1.94427 -11.47554,4.38077 -16.4911,6.22792 -14.59582,5.37546 -39.34116,16.80868 -50.59712,17.60154 M 219.43158,162.63103 c 1.49312,7.32282 4.70424,17.6693 7.0697,26.0219 l 14.04015,49.5764 c 2.65092,9.36056 4.80524,19.2973 8.72646,27.61212 14.08731,-7.82788 44.89433,-25.56355 57.47812,-34.93421 m 334.19753,39.89991 c -1.93444,0.6381 -3.40722,1.56088 -8.63334,1.84634 -8.41154,0.45947 -26.09239,-0.0438 -35.41589,-0.18724 -24.31022,-0.37386 -49.41002,-0.47833 -73.49605,-0.69368 -14.34622,-0.12824 -27.77236,0.62088 -37.90445,-1.21375 m 356.66957,65.67046 c -0.34271,6.75723 5.17453,12.91731 9.54493,20.45758 9.00592,15.53809 18.27877,30.97317 27.45018,46.43775 3.44802,5.8138 7.24699,17.12605 13.11491,20.9901 5.04636,3.323 17.12405,0.75536 22.84558,0.46672 16.70992,-0.84283 35.8447,0.24952 47.10594,-3.03021 M 841.05075,340.87318 c -7.80298,6.2166 -16.25641,15.77825 -23.83524,24.05699 -15.59342,17.0336 -31.52821,34.1534 -48.00984,50.48406 -5.88861,5.83461 -17.9546,18.93301 -22.544,24.34343 -4.09614,4.82908 -4.42405,7.17992 -5.31884,9.82424 M 118.27943,197.65848 c 1.71693,8.25217 8.69687,20.79729 12.93282,29.76788 11.23213,23.78668 22.97692,47.38492 34.21439,71.16921 3.34394,7.07757 6.92927,15.04453 10.58737,21.90113 1.57937,2.96027 2.83035,6.20117 6.27484,6.90812 2.899,0.59504 4.72329,-2.79938 5.96208,-4.20593 2.50523,-2.84441 6.09997,-6.21293 9.04664,-8.97463 16.66533,-15.61933 35.64702,-30.37158 50.3969,-47.50917 m 456.78776,63.42603 1.29533,0.28713 m -108.45458,19.95808 c -3.47452,11.8971 -1.13179,32.6391 -1.03576,47.45481 0.0396,6.10891 -1.99028,16.05069 0.85076,21.57341 3.13091,6.08585 16.16303,11.19218 22.29673,15.18125 4.58207,2.98002 6.33847,4.97799 10.62982,6.87515 2.84929,1.25975 14.07457,1.4124 20.02493,1.82318 19.34725,1.3357 39.52197,3.05063 58.94002,4.51217 5.00218,0.3765 16.10969,1.38109 20.1567,1.13257 4.33076,-0.26655 5.47583,-1.08805 7.25376,-1.66745 M 296.05516,332.4636 c 6.67786,5.28163 19.33197,6.92616 36.70356,11.91938 31.33731,9.00759 63.06595,18.02796 94.76661,25.78547 6.94227,1.69892 10.77387,2.16744 15.82167,2.28608 4.92599,0.11579 8.01205,-0.39256 13.94391,-1.2636 28.57107,-4.19532 57.68747,-8.27995 86.20007,-12.47543 14.80491,-2.17848 38.29032,-7.45457 51.98035,-6.29435 m 295.22695,71.60356 c -10.68356,4.65816 -23.33373,5.3313 -35.83781,7.24115 -22.28547,3.40377 -44.32046,7.07214 -66.60098,10.38244 -9.45627,1.40484 -26.8492,3.97736 -35.40188,5.43019 -7.02879,1.19408 -8.34619,2.11506 -10.2195,2.79075 M 8.3385392,229.51365 c -14.5957798,10.96697 1.8676518,52.04632 5.9696368,71.01709 5.213067,24.10946 9.810645,48.9922 15.062553,73.03418 2.253342,10.31516 2.458011,25.3396 8.859738,34.22107 9.105927,12.63322 30.181355,23.35501 43.664709,32.82844 5.488287,3.85604 11.085136,9.76325 17.572635,11.74653 4.642519,1.41917 6.492689,-2.24747 8.316649,-5.15911 3.50948,-5.60237 7.81682,-12.67459 11.21187,-18.29756 9.09134,-15.05739 18.40278,-30.26072 27.89661,-45.16431 4.7737,-7.49386 9.46238,-15.2185 14.08676,-22.55145 4.87479,-7.73 13.25332,-16.01487 8.67808,-24.97394 l -89.685722,49.79786 c -12.57014,6.9796 -28.870357,16.46784 -40.63112,21.55384 M 292.16933,331.6016 c -1.38004,2.00864 -2.34687,3.81332 -3.27081,7.83508 -1.53728,6.69125 -5.51667,28.40559 -7.29429,36.28315 -1.26453,5.60411 -1.37077,11.07984 -2.60394,16.53992 -0.78147,3.46021 -2.01397,6.56843 0.83649,9.70564 6.465,7.11562 18.12141,13.25523 26.42043,18.8679 5.19657,3.51445 10.49123,9.04791 16.39985,11.25994 3.67722,1.3767 6.93547,0.83507 10.71868,0.81066 10.78549,-0.0696 23.08941,-0.0493 34.12033,-0.0728 16.44928,-0.0351 32.54596,-0.0696 49.13331,-0.10495 8.03906,-0.0173 16.87481,-0.43323 24.6227,-0.28631 5.75564,0.10913 15.06368,0.0847 20.41016,0.21522 5.03054,0.12265 7.51172,0.61178 12.46363,-0.77873 M 186.13107,330.08735 c 8.18447,0.28944 13.46765,0.47036 23.03508,0.64652 19.40647,0.35727 38.7741,0.99108 58.24205,1.73176 4.25525,0.16185 9.58291,0.18233 13.55738,0.32333 5.26448,0.18685 6.41359,0.39025 8.05688,0.55987 m 453.33749,117.68133 9.80587,4.62059 m -12.67457,-4.0343 c -0.59693,1.61803 -1.46674,2.64136 -1.57375,8.21155 -0.0653,3.40422 0.39825,8.6021 0.7628,12.39416 0.94901,9.87034 1.49727,18.84773 2.63726,28.70669 3.58273,30.9851 5.66955,62.43667 8.18371,93.51651 1.29432,16.00033 1.74059,34.54206 4.97983,45.12119 9.55469,-2.0298 50.60091,-20.13448 63.58079,-26.24437 M 180.94998,328.93809 c -3.90754,5.81644 -4.67123,6.85226 -6.66742,10.7478 M 594.1424,420.5965 c -9.10657,7.3321 -38.62179,23.45778 -49.33279,29.405 m 202.91406,7.10927 -0.27794,1.16103 M 169.658,336.21464 l 5.73742,-1.17262 m 287.53401,98.01871 6.1982,2.59761 m -3.42503,2.90827 c -22.70855,15.96114 -46.59649,31.96153 -68.84185,48.30826 -3.50375,2.57471 -5.70503,5.19919 -9.22889,7.27091 -3.06522,1.80214 -6.49319,2.55633 -9.79736,3.71276 -6.57852,2.30239 -14.18208,5.05411 -20.87229,7.40708 -8.61297,3.02923 -18.08432,6.54528 -26.75587,9.18977 -3.28665,1.00233 -6.58043,1.64482 -9.94476,1.6526 -3.32794,0.007 -5.38713,-0.0573 -8.02447,-0.66872 -3.58596,-0.83128 -8.69694,-3.33157 -12.5121,-4.71243 -19.58723,-7.08926 -39.04822,-15.09024 -58.68481,-22.65791 -4.76885,-1.83789 -9.36376,-4.11358 -13.66142,-5.60895 -3.52946,-1.22809 -6.40946,-1.6021 -10.32358,-2.45984 -25.60321,-5.6112 -52.3118,-10.38073 -77.99479,-16.07799 -12.92911,-2.86805 -26.82969,-3.34366 -35.71135,-10.36722 m 172.13068,-52.2947 c -4.72243,8.94522 -12.12068,20.56341 -18.18266,30.20163 -6.39214,10.16316 -12.71974,20.8847 -18.94255,31.25573 -3.93949,6.56561 -7.58162,12.42878 -9.08596,17.54736 m 94.31051,-46.32658 c -1.06423,5.61106 -1.48572,15.59274 -1.67736,24.08152 -0.25119,11.12425 -1.05865,22.71806 -1.31213,33.94403 -0.11699,5.17924 -0.32477,10.58394 -0.5255,15.77261 -0.1616,4.17787 -0.52772,5.32245 -0.8737,7.14794 m 68.9445,-20.16381 c 8.67487,6.85998 46.64483,14.01526 60.04342,16.98748 m 305.28571,126.41017 c -2.69646,0.62058 -5.00401,1.15248 -9.62023,0.2896 -5.9122,-1.10516 -14.56241,-3.20863 -20.7274,-4.57619 -16.3224,-3.62081 -42.49964,-9.4277 -56.99207,-12.64254 M 510.12674,606.14714 c 2.28218,7.15206 19.87917,23.92048 28.81765,33.4464 25.08064,26.72877 49.78182,53.73627 74.84091,80.48323 10.08481,10.76402 20.87546,24.12976 28.77414,27.93458 1.59219,-12.76943 -5.04463,-41.09245 -8.66799,-60.61152 -1.75842,-9.47255 -4.28679,-21.84465 -3.68634,-30.16209"
       id="path1" />
  </g>
</svg>
